<svg width="20" height="20" viewBox="0 0 20 20" fill="none" xmlns="http://www.w3.org/2000/svg"><g clip-path="url(#a)"><path d="M17.071 17.071c3.905-3.905 3.905-10.237 0-14.142-3.905-3.905-10.237-3.905-14.142 0-3.905 3.905-3.905 10.237 0 14.142 3.905 3.905 10.237 3.905 14.142 0z" fill="#D64F49"/><path fill-rule="evenodd" clip-rule="evenodd" d="M6.978 14.53H4.632c-.556 0-.834 0-1-.107a.671.671 0 0 1-.306-.526c-.011-.198.126-.44.402-.922l5.136-8.998c.278-.49.42-.735.597-.826a.671.671 0 0 1 .613 0c.178.09.318.335.598.825l1.184 2.068c.204.356.306.534.351.722a1.34 1.34 0 0 1 0 .621c-.044.188-.146.366-.35.722l-3.07 5.373c-.207.361-.31.542-.452.677a1.347 1.347 0 0 1-.546.316c-.185.055-.395.055-.811.055zM15.348 14.53h-2.72c-.562 0-.842 0-1.01-.108a.67.67 0 0 1-.304-.53c-.01-.198.131-.44.414-.925l1.357-2.33c.278-.478.418-.717.595-.807a.672.672 0 0 1 .607 0c.177.09.317.329.597.807l1.362 2.329c.283.485.425.727.415.927a.671.671 0 0 1-.304.53c-.166.107-.447.107-1.01.107z" fill="#fff"/></g><defs><clipPath id="a"><path fill="#fff" d="M0 0h20v20H0z"/></clipPath></defs></svg>