<svg width="20" height="20" viewBox="0 0 20 20" fill="none" xmlns="http://www.w3.org/2000/svg"><circle cx="10" cy="10" r="10" fill="#F3BA2F"/><path d="M11.47 14.908v1.537l-1.34.788-1.3-.788v-1.537l1.3.788 1.34-.788zM4.3 9.59l1.3.788v2.64l2.246 1.339v1.536L4.3 13.805V9.59zm11.66 0v4.215l-3.584 2.088v-1.536l2.245-1.34v-2.639l1.34-.788zm-3.584-2.088l1.34.788v1.536l-2.246 1.34v2.679l-1.3.787-1.3-.787v-2.68L6.546 9.827V8.29l1.339-.788 2.245 1.34 2.246-1.34zm-5.83 3.428l1.3.787v1.537l-1.3-.788V10.93zm7.17 0v1.536l-1.3.788v-1.537l1.3-.787zM5.6 6.163l1.34.788-1.34.788v1.536l-1.3-.788V6.951l1.3-.788zm9.06 0L16 6.95v1.536l-1.34.788V7.739l-1.3-.788 1.3-.788zm-4.53 0l1.34.788-1.34.788-1.3-.788 1.3-.788zm0-2.64l3.585 2.088-1.3.788-2.245-1.34L7.885 6.4l-1.3-.788 3.545-2.088z" fill="#fff"/></svg>