<svg width="42" height="41" viewBox="0 0 42 41" fill="none" xmlns="http://www.w3.org/2000/svg"><path d="M41.983 11.342v24.572a4.765 4.765 0 0 1-.867 2.754 4.807 4.807 0 0 1-8.702-2.155v-8.674-15.195a9.257 9.257 0 0 0 0-1.572 1.69 1.69 0 0 0-1.636-1.341 1.673 1.673 0 0 0-1.642 1.363 7.238 7.238 0 0 0 0 1.455v24.658a1.59 1.59 0 0 1-.483 1.154 1.614 1.614 0 0 1-1.185.486h-.072a1.65 1.65 0 0 1-1.64-1.64V11.401a5.002 5.002 0 0 1 9.083-2.907c.603.85.927 1.865.927 2.907v24.368a1.25 1.25 0 0 0 0 .145c-.003.049-.003.098 0 .147a1.43 1.43 0 0 0 2.846.02c.015-.11.015-.222 0-.332V11.342a7.712 7.712 0 0 0-2.342-5.657 7.862 7.862 0 0 0-3.2-1.985l-.28-.084-.278-.067-.279-.061a8.742 8.742 0 0 0-1.594-.145h-.28a2.098 2.098 0 0 0-.278.014 8.004 8.004 0 0 0-7.425 7.985v25.865a1.648 1.648 0 0 1-1.64 1.64h-.033a1.605 1.605 0 0 1-1.185-.483 1.589 1.589 0 0 1-.488-1.157V11.342A7.975 7.975 0 0 0 3.93 8.245a7.974 7.974 0 0 0-.564 3.097v24.401c-.015.11-.015.222 0 .332a1.43 1.43 0 0 0 2.847-.02c.003-.048.003-.098 0-.147a1.266 1.266 0 0 0 0-.145V11.395a5.018 5.018 0 0 1 3.365-4.74 5.002 5.002 0 0 1 6.644 4.74v25.807a1.65 1.65 0 0 1-1.64 1.639h-.055a1.614 1.614 0 0 1-1.185-.485 1.589 1.589 0 0 1-.482-1.154V25.257 14.164v-1.615a7.238 7.238 0 0 0 0-1.455 1.672 1.672 0 0 0-1.642-1.363 1.69 1.69 0 0 0-1.637 1.34 9.249 9.249 0 0 0 0 1.573v23.869a4.81 4.81 0 0 1-9.58-.6V11.342A11.314 11.314 0 0 1 11.342 0c3.732 0 6.956 1.76 9.672 5.28 2.56-3.345 5.59-5.1 9.092-5.266h.552A11.314 11.314 0 0 1 42 11.356l-.017-.014z" fill="url(#a)"/><defs><linearGradient id="a" x1="-6.134" y1="40.706" x2="42.1" gradientUnits="userSpaceOnUse"><stop stop-color="#18E8D9"/><stop offset="1" stop-color="#009EE2"/></linearGradient></defs></svg>