<svg width="32" height="32" viewBox="0 0 32 32" fill="none" xmlns="http://www.w3.org/2000/svg"><rect width="32" height="32" rx="4" fill="url(#a)"/><path d="M26.992 11.85v12.675a2.512 2.512 0 0 1-.434 1.42c-.279.41-.67.723-1.125.898a2.334 2.334 0 0 1-1.42.084 2.392 2.392 0 0 1-1.217-.758 2.516 2.516 0 0 1-.589-1.335V20.36v-7.838c.023-.27.023-.541 0-.811a.876.876 0 0 0-.291-.495.83.83 0 0 0-.527-.197.822.822 0 0 0-.534.2.87.87 0 0 0-.287.503c-.025.25-.025.502 0 .751V25.192a.84.84 0 0 1-.834.846h-.036a.813.813 0 0 1-.578-.25.865.865 0 0 1-.242-.596V11.881a2.637 2.637 0 0 1 .461-1.5 2.51 2.51 0 0 1 1.22-.945c.532-.19 1.11-.19 1.641 0 .492.177.918.507 1.22.945.301.438.463.962.463 1.5V24.45a.667.667 0 0 0 0 .075.694.694 0 0 0 0 .076.746.746 0 0 0 .228.476.703.703 0 0 0 .96.006.746.746 0 0 0 .235-.472.662.662 0 0 0 0-.171V11.85a4.087 4.087 0 0 0-.293-1.584 3.984 3.984 0 0 0-.878-1.334 3.914 3.914 0 0 0-1.6-1.024l-.14-.043-.139-.034-.14-.032a4.243 4.243 0 0 0-.797-.075h-.14a3.955 3.955 0 0 0-2.78 1.314 4.201 4.201 0 0 0-1.07 2.812v13.342a.863.863 0 0 1-.242.597.812.812 0 0 1-.579.249h-.016a.781.781 0 0 1-.593-.25.821.821 0 0 1-.244-.596V11.85a4.229 4.229 0 0 0-.282-1.597 4.127 4.127 0 0 0-.859-1.36c-.37-.39-.814-.7-1.302-.912a3.882 3.882 0 0 0-3.086 0 3.983 3.983 0 0 0-1.303.911c-.37.39-.663.853-.859 1.36a4.229 4.229 0 0 0-.281 1.598v12.587a.66.66 0 0 0 0 .171c.018.182.102.35.234.473a.703.703 0 0 0 .96-.007.747.747 0 0 0 .229-.476.697.697 0 0 0 0-.076.671.671 0 0 0 0-.075v-12.57c0-.537.162-1.06.463-1.499a2.518 2.518 0 0 1 1.22-.945c.531-.19 1.109-.19 1.64 0a2.51 2.51 0 0 1 1.22.945c.302.438.463.962.462 1.5v13.311a.865.865 0 0 1-.242.596.813.813 0 0 1-.578.25h-.028a.784.784 0 0 1-.592-.25.82.82 0 0 1-.242-.596v-6.16-5.723-.833c.025-.25.025-.501 0-.75a.87.87 0 0 0-.287-.505.822.822 0 0 0-.534-.199.83.83 0 0 0-.527.197.876.876 0 0 0-.291.495c-.022.27-.022.541 0 .811V24.834a2.503 2.503 0 0 1-.854 1.597 2.356 2.356 0 0 1-1.681.563 2.375 2.375 0 0 1-1.6-.775A2.523 2.523 0 0 1 6 24.525V11.85a5.997 5.997 0 0 1 .428-2.24 5.852 5.852 0 0 1 1.229-1.9A5.649 5.649 0 0 1 9.499 6.44 5.506 5.506 0 0 1 11.67 6c1.866 0 3.478.908 4.836 2.724 1.28-1.726 2.795-2.631 4.546-2.717H21.329a5.507 5.507 0 0 1 2.172.442 5.65 5.65 0 0 1 1.842 1.268c.527.543.945 1.189 1.23 1.9.283.71.429 1.472.427 2.24l-.008-.007z" fill="#F8F9FA"/><defs><linearGradient id="a" x1="32" y1="16" x2="0" y2="16" gradientUnits="userSpaceOnUse"><stop stop-color="#04AAE1"/><stop offset="1" stop-color="#15DFDA"/></linearGradient></defs></svg>