<svg width="43" height="44" viewBox="0 0 43 44" fill="none" xmlns="http://www.w3.org/2000/svg"><path d="M41.67 9.138l-21.28 21.28c-.851.851-2.128.851-2.98 0l-5.957-5.958c-.852-.851-.852-2.128 0-2.98.85-.85 2.128-.85 2.979 0l2.979 2.98c.851.851 2.128.851 2.98 0l18.3-18.301c.851-.851 2.128-.851 2.98 0 .85.851.85 2.128 0 2.98zm-2.34 8.3c-.426.425-.64 1.276-.64 1.915.214 1.064.214 1.915.214 2.766 0 10.427-9.576 18.726-20.43 16.598-6.596-1.276-11.916-6.596-13.193-13.193C3.153 14.67 11.453 5.095 21.88 5.095c2.766 0 5.533.638 7.873 1.915.852.426 1.703.213 2.341-.425 1.064-1.064.851-2.767-.425-3.405-4.044-2.128-8.725-2.98-13.62-2.128C9.537 2.542 2.515 9.564 1.025 18.076c-2.553 14.257 8.938 26.6 22.983 25.11 8.512-.851 15.747-7.022 18.088-15.109 1.064-3.192 1.064-6.384.638-9.363-.213-1.702-2.34-2.34-3.405-1.277z" fill="url(#a)"/><defs><linearGradient id="a" x1="21.834" y1=".726" x2="21.834" y2="43.308" gradientUnits="userSpaceOnUse"><stop stop-color="#04A9E1"/><stop offset="1" stop-color="#15DFDB"/></linearGradient></defs></svg>