<svg width="70" height="56" viewBox="0 0 70 56" fill="none" xmlns="http://www.w3.org/2000/svg"><path d="M61.018 34.998c-3.999-3.335-7.931-6.612-12.038-10.035 0 1.005.004 1.811 0 2.613-.009 2.542-1.358 3.904-3.887 3.908-5.328.004-10.66 0-15.988 0h-1.067c-.017.345-.046.631-.046.922-.004 1.94-.017 3.88 0 5.819.012 1.57-.602 2.779-2.052 3.43-1.407.636-2.703.337-3.882-.647C15.18 35.272 8.292 29.54 1.415 23.796c-1.857-1.55-1.902-3.979-.042-5.536C8.304 12.453 15.256 6.672 22.207.886c1.13-.939 2.421-1.155 3.754-.536 1.366.631 2.027 1.77 2.027 3.281v6.866c1.216 0 2.334-.03 3.446.004 2.658.083 4.32 2.62 3.24 4.943-.607 1.308-1.674 2.018-3.107 2.043-2.375.042-4.755.037-7.134.004-1.902-.029-3.339-1.487-3.401-3.397-.03-.968-.004-1.94-.004-3.128L8.985 21.001c4 3.335 7.932 6.612 12.035 10.03 0-1.063-.009-1.919 0-2.778.02-2.33 1.403-3.73 3.724-3.734 5.382-.013 10.768-.004 16.15-.004h1.068c.016-.345.045-.636.045-.922.004-1.94.017-3.88-.004-5.82-.017-1.536.577-2.728 1.977-3.397 1.432-.681 2.753-.39 3.957.61 6.86 5.724 13.729 11.435 20.59 17.163 1.939 1.62 1.976 4.024.04 5.648a8157.318 8157.318 0 0 1-20.775 17.32c-1.13.939-2.421 1.15-3.754.532-1.329-.62-2.018-1.72-2.022-3.203-.009-2.263 0-4.527 0-6.89-.366-.02-.682-.042-.993-.05-1.063-.033-2.143.037-3.185-.116-1.757-.258-2.949-1.89-2.824-3.664.125-1.715 1.528-3.169 3.264-3.21 2.488-.058 4.975-.058 7.458 0 1.77.046 3.16 1.516 3.231 3.306.037.997.008 1.994.008 3.215 4.107-3.423 8.04-6.7 12.043-10.04z" fill="url(#a)"/><defs><linearGradient id="a" x1="35" x2="35" y2="56" gradientUnits="userSpaceOnUse"><stop stop-color="#03A6E2"/><stop offset="1" stop-color="#15DFDB"/></linearGradient></defs></svg>