<svg xmlns="http://www.w3.org/2000/svg" viewBox="0 0 99.5 85.5"><path d="M96.7 46.8L70.4 2.1c-.4-.5-1-.9-1.6-.9-.9 0-1.7.9-1.7 1.8V28.3L51.7 2.2c-.4-.6-1-1-1.6-.9h-.3c-.6 0-1.2.3-1.6.9L32.6 29V4.2 3.1c0-1-.9-1.8-1.8-1.8-.6 0-1.2.4-1.6 1L2.9 46.9c-.6.8-.5 1.6.2 2.4l27.4 34c.9 1.3 2.2.9 2.2-.7V62.2l11.6 14.5 4.2 5.3 1.6 1.9 1.7-1.9 15.4-19.5v20c0 1.6 1.1 2 2 .7l27.4-34c.6-.9.7-1.6.1-2.4zm-90.3 1L29.1 9.4v25.4l-7.1 12c-.6.8-.5 1.6.1 2.4l7 8.6V76L6.4 47.8zm26.3 8.8l-7.1-8.8 3.6-6.1 3.5-5.9L48.2 9.4l.1 66.7-15.6-19.5zM52 76.1l-.1-66.7 15.3 25.8.3.7 3.2 5.4V41l3.8 6.7L52 76.1zm18.7 0V58.3l7.2-9c.6-.9.7-1.6.1-2.4l-7.3-12.7V9.4l22.6 38.4-22.6 28.3z" fill="#00416b"/></svg>