<svg version="1.1" id="Layer_1" xmlns="http://www.w3.org/2000/svg" x="0" y="0" viewBox="0 0 700 605" xml:space="preserve"><style>.st0{fill:#144b6f}</style><path class="st0" d="M443.4 345.4c-13 16.5-25.5 32.3-38 48.2-15.8 20-31.7 40-47.5 60-4.5 5.7-7.5 6.3-12.6-.2-27.2-34.6-55-68.7-82.5-103-1.6-2-2.9-5.7-5.7-4.7-3.4 1.2-1.7 5.2-1.7 7.9-.1 30.3-.1 60.6-.1 90.9 0 2.9-.2 5.9-.2 8.8 0 3.5-1 6.5-4.6 7.7-3.5 1.1-5.4-1.6-7.2-3.9-12-14.8-24-29.7-36-44.5-25.3-31.3-50.5-62.5-75.7-93.8-12.4-15.3-24.6-30.7-37-46-5.3-6.5-6.3-12.1-1.3-20.3 46.6-78.1 92.6-156.6 138.8-235 1.6-2.8 3.1-5.7 5.3-8.1 2.6-2.9 5.9-5.4 10.1-3.7 4.2 1.8 7.5 4.6 7.5 9.8v135c0 1.3 0 2.7 1.6 4.6 8.3-14.3 16.6-28.7 24.9-43C300.2 79.4 319 46.8 338 14.4c7.9-13.4 16.8-13.1 24.6.3 26.4 44.7 52.8 89.3 79.2 134 .3.4.9.7 1.4 1.1 2.7-2 1.5-4.8 1.5-7.3.1-40 .1-80 .1-120 0-2.7-.1-5.3.2-7.9.5-4.8 2.6-8.6 7.5-9.8 5-1.2 8.5 1.3 11 5.4 8.9 14.8 17.8 29.7 26.5 44.6 24 40.6 48 81.3 72 121.9 15.3 26 30.6 52.1 46 78 3.6 6 2.5 11.3-1.5 16.2-35.8 44.2-71.7 88.4-107.4 132.7-13.5 16.6-26.7 33.4-40 50.2-2.5 3.1-4.9 7.8-9.6 5.9-4.3-1.8-4-6.7-4-10.9v-94.4c-.2-2.5.5-5.2-2.1-9zM340.1 55.2c-4.6 2.1-5.6 5.4-7.2 8-12.1 20.5-24 41-36 61.5-25.3 43-50.6 86-76 129-2.7 4.5-4.6 8.1-.3 13.3 33 40.5 65.5 81.4 98.4 122 6.7 8.3 12.6 17.2 21.1 25.1V55.2zm24-.4c-.5.2-1.1.4-1.6.6v358.3c4.4-1.4 5.7-4.6 7.7-7.1 12.1-15.1 24-30.3 36-45.5 25.1-31.7 50.3-63.5 75.5-95.2 2.2-2.7 4.6-5.1 1.9-9.3-4.1-6.4-7.5-13.3-11.4-19.8-25.6-43.4-51.3-86.7-77-130.1-10.3-17.2-20.7-34.5-31.1-51.9zm102.4 1c-2.3 1.4-1.7 3.7-1.7 5.6v119c0 3.6.5 7.2 2.2 10.2 11.4 20.1 22.8 40.2 34.8 60 7 11.7 7.4 13.9-.9 24.1-10.1 12.5-20.3 25-30.3 37.7-2.9 3.6-5.8 7.1-5.8 12.4.2 27.3.1 54.6.1 82 0 2-.8 4.7 1.4 5.6 2.9 1.2 3.8-2.1 5.1-3.7 14.9-18.5 29.8-37.1 44.6-55.6 22.8-28.3 45.5-56.6 68.4-84.9 3.7-4.6 4.4-8.5.9-14.1-8.2-12.8-15.2-26.4-22.9-39.5-30-50.9-60.1-101.8-90.1-152.7-1.5-2.5-2.6-5.3-5.8-6.1zm-231.4-.4c-.8-.3-1.5-.6-2.2-.9-8.9 15-17.8 30.1-26.7 45.1-29.1 49.3-58.3 98.5-87.3 147.8-8.8 14.9-8.3 14.7 2.8 28.2 26 31.8 51.6 64 77.3 95.9 11.4 14.2 23 28.3 34.5 42.6 2.3-2 1.6-3.9 1.6-5.5.1-28.5-.1-57 .2-85.5 0-5.5-2.3-9.4-5.5-13.4-10.5-12.7-20.6-25.6-31.3-38.1-4.9-5.8-5.1-11.3-1.3-17.6 7.8-12.8 14.5-26.3 23.1-38.4 11.5-16.3 15.9-33.4 15.1-53.5-1.3-35.6-.3-71.2-.3-106.7zM6 523.2h24.1c17.7 0 29.3 11.7 29.3 29.6 0 17.7-11.2 31.2-29.8 31.2H6v-60.8zm13.1 50.2H29c11.7 0 16.8-8.7 16.8-20.5 0-9.9-4.8-19-16.7-19h-9.9c-.1 0-.1 39.5-.1 39.5zM79.1 563.9c0 5.7 2.9 11.3 9.2 11.3 5.3 0 6.8-2.1 8-4.9h12.6c-1.6 5.6-6.6 14.8-20.9 14.8-15 0-21.6-11.2-21.6-23.2 0-14.3 7.3-24.5 22-24.5 15.7 0 21 11.3 21 22.7 0 1.5 0 2.5-.2 3.8H79.1zm17.6-7.8c-.1-5.3-2.2-9.8-8.4-9.8-6.1 0-8.5 4.2-9 9.8h17.4zM118.1 584v-64.3h12.6V584h-12.6zM137.9 538.4h7V526h12.6v12.3h8.9v9.5h-8.9v22.5c0 3.5 1.1 4.8 4.8 4.8.7 0 1.9 0 2.9-.1v8.7c-2.5.8-5.9.9-8.5.9-8.9 0-11.8-4.8-11.8-12.7v-24h-7v-9.5zM211.7 572.2c0 4.3.4 10.7.6 11.8h-12.1c-.4-.9-.6-3.3-.6-4.5-1.6 2.6-4.8 5.5-12.8 5.5-11 0-15.6-7.2-15.6-14.3 0-10.4 8.4-15.2 21.7-15.2h6.5v-2.8c0-3.2-1.2-6.4-7-6.4-5.3 0-6.5 2.3-7.1 5.6h-12c.7-8.1 5.7-14.7 19.6-14.6 12.2.1 18.9 4.8 18.9 15.7l-.1 19.2zm-12.3-9h-5.1c-7.6 0-10.4 2.3-10.4 6.7 0 3.3 2 6.1 6.6 6.1 8 0 9-5.6 9-11.6l-.1-1.2zM223.8 523.2h13.1v23.7h24.5v-23.7h13.1V584h-13.1v-26.3h-24.5V584h-13.1v-60.8zM326.1 570.8c0 4.4 0 9.2.1 13.3h-12.4c-.2-1.2-.3-3.7-.3-5.3-2.7 4.6-6.7 6.3-12.6 6.3-9.3 0-15.2-5.7-15.2-17v-29.7h12.6v27.2c0 5 1.6 9.2 7 9.2 5.8 0 8.1-3.1 8.1-12.1v-24.3H326v32.4zM337.5 519.7h12.6v23.6c1.9-2.9 5.7-5.9 13-5.9 12.4 0 18.6 10.3 18.6 23 0 13.1-6.7 24.7-19.8 24.7-6.8 0-9.8-2.1-12-5.4 0 1.5-.2 3.2-.5 4.3h-12.1c.1-5 .1-10 .1-14.9l.1-49.4zm31.5 40.9c0-7.6-2.8-13.2-9.6-13.2-7.2 0-9.8 4.7-9.8 14 0 7.7 2.3 13.6 9.6 13.6 6.4 0 9.8-5.7 9.8-14.4zM465 565.3c-2.4 11.3-11 19.6-26.2 19.6-19.3 0-28.4-13.6-28.4-30.9 0-16.7 9.4-31.6 29-31.6 16.2 0 24 9.5 25.5 19.7h-13.1c-1.3-4.7-4.5-9.3-12.8-9.3-10.8 0-15 9.8-15 20.8 0 10.3 3.6 21.1 15.4 21.1 8.6 0 11.3-5.7 12.4-9.3l13.2-.1zM512.2 572.2c0 4.3.3 10.7.6 11.8h-12.1c-.3-.9-.6-3.3-.6-4.5-1.7 2.6-4.8 5.5-12.8 5.5-11 0-15.6-7.2-15.6-14.3 0-10.4 8.3-15.2 21.7-15.2h6.5v-2.8c0-3.2-1.2-6.4-7-6.4-5.3 0-6.5 2.3-7.1 5.6h-12c.7-8.1 5.7-14.7 19.6-14.6 12.2.1 18.9 4.8 18.9 15.7l-.1 19.2zm-12.4-9h-5.2c-7.6 0-10.4 2.3-10.4 6.7 0 3.3 2 6.1 6.6 6.1 8 0 9-5.6 9-11.6v-1.2zM536.2 580v21.5h-12.5v-52.1c0-3.7 0-7.3-.1-11h12.2c.2 1.2.4 4 .4 5.7 2-3.3 6-6.7 13.3-6.7 10.3 0 18.2 8.6 18.2 22.7 0 16.1-8.8 25-19.9 25-6.6 0-9.9-2.5-11.6-5.1zm18.6-19.5c0-8.4-3.4-13.1-9.4-13.1-7.2 0-9.7 4.6-9.7 13.8 0 8.7 2.3 13.8 9.2 13.8 6.6 0 9.9-5.2 9.9-14.5zM576.3 519.7h12.6V531h-12.6v-11.3zm0 18.7h12.6V584h-12.6v-45.6zM596.2 538.4h7V526h12.6v12.3h8.9v9.5h-8.9v22.5c0 3.5 1.1 4.8 4.8 4.8.7 0 1.9 0 2.9-.1v8.7c-2.5.8-5.9.9-8.5.9-8.9 0-11.8-4.8-11.8-12.7v-24h-7v-9.5zM669.9 572.2c0 4.3.3 10.7.6 11.8h-12.1c-.3-.9-.6-3.3-.6-4.5-1.7 2.6-4.8 5.5-12.8 5.5-11 0-15.6-7.2-15.6-14.3 0-10.4 8.3-15.2 21.7-15.2h6.5v-2.8c0-3.2-1.2-6.4-7-6.4-5.3 0-6.5 2.3-7.1 5.6h-12c.7-8.1 5.7-14.7 19.6-14.6 12.2.1 18.9 4.8 18.9 15.7l-.1 19.2zm-12.3-9h-5.2c-7.6 0-10.4 2.3-10.4 6.7 0 3.3 2 6.1 6.6 6.1 8 0 9-5.6 9-11.6v-1.2zM681.4 584v-64.3H694V584h-12.6z"/></svg>