<svg width="46" height="54" viewBox="0 0 46 54" fill="none" xmlns="http://www.w3.org/2000/svg"><g clip-path="url(#clip0)"><path d="M28.82 0H3.706A3.477 3.477 0 00.229 3.477v40.654a3.477 3.477 0 003.477 3.477h31.838a3.477 3.477 0 003.477-3.477v-33.94L28.821 0z" fill="#CCC"/><path d="M9.642 39.61a5.027 5.027 0 00-.468 1.04.99.99 0 01-.976.586 1.009 1.009 0 01-.898-.699 1.372 1.372 0 01.101-.948 7.637 7.637 0 011.264-2.482 1.353 1.353 0 011.028-.556c.705-.016 1.144.281 1.441 1.024a22.7 22.7 0 01.69 2.229.86.86 0 00.265.493 8.88 8.88 0 01.174-1.596c.078-.447.236-.875.468-1.265.736-1.15 2.43-1.122 3.37-.281.386.347.735.734 1.042 1.154.36.51.794.964 1.29 1.343a.919.919 0 00.879.152c.843-.306 1.71-.542 2.592-.705.524-.071 1.052-.11 1.58-.117 1.878-.022 3.756 0 5.633 0 .705 0 1.145.424 1.126 1.056-.016.578-.471.973-1.138.973H23.98a10.18 10.18 0 00-3.591.579c-1.685.61-2.592.423-4.223-1.236-.462-.474-.784-1.069-1.265-1.53-.12-.114-.237-.291-.42-.221-.184.07-.19.265-.212.433-.098.77-.177 1.545-.3 2.31a2.75 2.75 0 01-.949 1.815 1.423 1.423 0 01-2.023-.2c-.543-.632-.758-1.406-.999-2.171-.142-.37-.243-.746-.357-1.18zM2.871 6.569v-.36h.854V3.846l-.832.493v-.436l1.078-.651h.152v2.955h.854v.36H2.87zM6.725 3.212c.774 0 1.213.667 1.213 1.697S7.5 6.606 6.725 6.606c-.775 0-1.214-.663-1.214-1.697s.442-1.697 1.214-1.697zM6.092 5.81l.987-2.108a.632.632 0 00-.367-.108c-.512 0-.797.506-.797 1.315-.009.311.056.62.19.9h-.013zm.256.316c.108.07.235.108.364.107.512 0 .797-.505.797-1.318a1.979 1.979 0 00-.174-.9l-.987 2.111zM9.664 3.212c.775 0 1.214.667 1.214 1.697s-.44 1.697-1.214 1.697-1.213-.663-1.213-1.697.442-1.697 1.213-1.697zM9.032 5.81l.986-2.108a.632.632 0 00-.366-.108c-.512 0-.797.506-.797 1.315-.009.311.056.62.19.9h-.013zm.256.316c.108.07.235.108.364.107.512 0 .796-.505.796-1.318a1.978 1.978 0 00-.174-.9l-.986 2.111zM11.69 6.569v-.36h.854V3.846l-.831.493v-.436l1.078-.651h.151v2.955h.854v.36H11.69zM15.544 3.212c.774 0 1.214.667 1.214 1.697s-.44 1.697-1.214 1.697-1.214-.663-1.214-1.697.443-1.697 1.214-1.697zm-.632 2.598l.986-2.108a.632.632 0 00-.367-.108c-.512 0-.796.506-.796 1.315-.01.311.056.62.19.9h-.013zm.256.316c.108.07.234.108.363.107.512 0 .797-.505.797-1.318a1.98 1.98 0 00-.174-.9l-.986 2.111zM18.493 3.212c.775 0 1.214.667 1.214 1.697s-.44 1.697-1.214 1.697-1.214-.663-1.214-1.697.433-1.697 1.214-1.697zm-.632 2.598l.986-2.108a.632.632 0 00-.367-.108c-.512 0-.796.506-.796 1.315-.013.31.047.619.177.9zm.256.316c.108.07.234.108.363.107.513 0 .797-.505.797-1.318a1.98 1.98 0 00-.174-.9l-.986 2.111zM20.51 6.569v-.36h.853V3.846l-.83.493v-.436l1.077-.651h.152v2.955h.84v.36H20.51zM24.363 3.212c.775 0 1.214.667 1.214 1.697s-.44 1.697-1.214 1.697-1.214-.663-1.214-1.697.443-1.697 1.214-1.697zm-.632 2.598l.986-2.108a.632.632 0 00-.366-.108c-.512 0-.797.506-.797 1.315-.01.311.056.62.19.9h-.013zm.256.316c.108.07.234.108.364.107.512 0 .796-.505.796-1.318a1.978 1.978 0 00-.174-.9l-.986 2.111zM26.396 6.569v-.36h.853V3.846l-.831.493v-.436l1.078-.651h.152v2.955h.853v.36h-2.105zM29.33 6.569v-.36h.859V3.846l-.831.493v-.436l1.078-.651h.151v2.955h.854v.36h-2.112zM3.785 8.901c.774 0 1.214.667 1.214 1.698 0 1.03-.44 1.697-1.214 1.697-.775 0-1.214-.663-1.214-1.697S3.004 8.9 3.785 8.9zM3.153 11.5l.986-2.109a.632.632 0 00-.367-.107c-.512 0-.796.506-.796 1.315-.01.31.056.62.19.9h-.013zm.256.316a.654.654 0 00.363.107c.512 0 .797-.505.797-1.318a1.979 1.979 0 00-.174-.9l-.986 2.11zM6.725 8.901c.774 0 1.213.667 1.213 1.698 0 1.03-.439 1.697-1.213 1.697-.775 0-1.214-.663-1.214-1.697S5.953 8.9 6.725 8.9zM6.092 11.5L7.08 9.39a.632.632 0 00-.367-.107c-.512 0-.797.506-.797 1.315-.009.31.056.62.19.9h-.013zm.256.316a.654.654 0 00.364.107c.512 0 .797-.505.797-1.318a1.979 1.979 0 00-.174-.9l-.987 2.11zM8.75 12.258v-.36h.854V9.537l-.831.493v-.436l1.078-.651h.152v2.955h.853v.36H8.751zM12.604 8.901c.775 0 1.214.667 1.214 1.698 0 1.03-.44 1.697-1.214 1.697s-1.214-.663-1.214-1.697.443-1.698 1.214-1.698zm-.632 2.599l.986-2.109a.632.632 0 00-.367-.107c-.512 0-.796.506-.796 1.315-.01.31.056.62.19.9h-.013zm.256.316a.654.654 0 00.364.107c.512 0 .796-.505.796-1.318a1.978 1.978 0 00-.174-.9l-.986 2.11zM15.544 8.901c.774 0 1.214.667 1.214 1.698 0 1.03-.44 1.697-1.214 1.697s-1.214-.663-1.214-1.697.443-1.698 1.214-1.698zm-.632 2.599l.986-2.109a.632.632 0 00-.367-.107c-.512 0-.796.506-.796 1.315-.01.31.056.62.19.9h-.013zm.256.316a.654.654 0 00.363.107c.512 0 .797-.505.797-1.318a1.98 1.98 0 00-.174-.9l-.986 2.11zM17.57 12.258v-.36h.854V9.537l-.832.493v-.436l1.078-.651h.14v2.955h.853v.36H17.57zM20.51 12.258v-.36h.853V9.537l-.83.493v-.436l1.077-.651h.152v2.955h.84v.36H20.51zM23.45 12.258v-.36h.853V9.537l-.831.493v-.436l1.078-.651h.151v2.955h.854v.36H23.45zM26.396 12.258v-.36h.853V9.537l-.831.493v-.436l1.078-.651h.152v2.955h.853v.36h-2.105zM30.243 8.901c.774 0 1.213.667 1.213 1.698 0 1.03-.439 1.697-1.213 1.697-.775 0-1.214-.663-1.214-1.697S29.47 8.9 30.243 8.9zM29.61 11.5l.987-2.109a.632.632 0 00-.367-.107c-.512 0-.797.506-.797 1.315-.009.31.056.62.19.9h-.013zm.256.316a.654.654 0 00.364.107c.512 0 .797-.505.797-1.318a1.978 1.978 0 00-.174-.9l-.987 2.11zM33.182 8.901c.775 0 1.214.667 1.214 1.698 0 1.03-.439 1.697-1.214 1.697-.774 0-1.213-.663-1.213-1.697S32.402 8.9 33.182 8.9zM32.55 11.5l.987-2.109a.632.632 0 00-.367-.107c-.512 0-.797.506-.797 1.315-.009.31.056.62.19.9h-.013zm.256.316a.654.654 0 00.364.107c.512 0 .797-.505.797-1.318a1.98 1.98 0 00-.174-.9l-.987 2.11zM2.871 17.948v-.36h.854v-2.361l-.832.493v-.436l1.078-.652h.152v2.956h.854v.36H2.87zM6.725 14.591c.774 0 1.213.667 1.213 1.698 0 1.03-.439 1.697-1.213 1.697-.775 0-1.214-.664-1.214-1.697 0-1.034.442-1.698 1.214-1.698zm-.633 2.599l.987-2.109a.632.632 0 00-.367-.107c-.512 0-.797.505-.797 1.315-.009.31.056.62.19.9h-.013zm.256.316c.108.07.235.108.364.107.512 0 .797-.506.797-1.318a1.979 1.979 0 00-.174-.9l-.987 2.11zM9.664 14.591c.775 0 1.214.667 1.214 1.698 0 1.03-.44 1.697-1.214 1.697s-1.213-.664-1.213-1.697c0-1.034.442-1.698 1.213-1.698zm-.632 2.599l.986-2.109a.632.632 0 00-.366-.107c-.512 0-.797.505-.797 1.315-.009.31.056.62.19.9h-.013zm.256.316c.108.07.235.108.364.107.512 0 .796-.506.796-1.318a1.978 1.978 0 00-.174-.9l-.986 2.11zM11.69 17.948v-.36h.854v-2.361l-.831.493v-.436l1.078-.652h.151v2.956h.854v.36H11.69zM15.544 14.591c.774 0 1.214.667 1.214 1.698 0 1.03-.44 1.697-1.214 1.697s-1.214-.664-1.214-1.697c0-1.034.443-1.698 1.214-1.698zm-.632 2.599l.986-2.109a.632.632 0 00-.367-.107c-.512 0-.796.505-.796 1.315-.01.31.056.62.19.9h-.013zm.256.316c.108.07.234.108.363.107.512 0 .797-.506.797-1.318a1.98 1.98 0 00-.174-.9l-.986 2.11zM17.57 17.948v-.36h.854v-2.361l-.832.493v-.436l1.078-.652h.14v2.956h.853v.36H17.57zM20.51 17.948v-.36h.853v-2.361l-.83.493v-.436l1.077-.652h.152v2.956h.84v.36H20.51zM24.363 14.591c.775 0 1.214.667 1.214 1.698 0 1.03-.44 1.697-1.214 1.697s-1.214-.664-1.214-1.697c0-1.034.443-1.698 1.214-1.698zm-.632 2.599l.986-2.109a.632.632 0 00-.366-.107c-.512 0-.797.505-.797 1.315-.01.31.056.62.19.9h-.013zm.256.316c.108.07.234.108.364.107.512 0 .796-.506.796-1.318a1.978 1.978 0 00-.174-.9l-.986 2.11zM27.303 14.591c.774 0 1.214.667 1.214 1.698 0 1.03-.44 1.697-1.214 1.697s-1.214-.664-1.214-1.697c0-1.034.443-1.698 1.214-1.698zm-.632 2.599l.986-2.109a.632.632 0 00-.367-.107c-.512 0-.796.505-.796 1.315-.01.31.056.62.19.9h-.013zm.256.316c.108.07.234.108.363.107.512 0 .797-.506.797-1.318a1.978 1.978 0 00-.174-.9l-.986 2.11zM29.33 17.948v-.36h.859v-2.361l-.831.493v-.436l1.078-.652h.151v2.956h.854v.36h-2.112zM33.182 14.591c.775 0 1.214.667 1.214 1.698 0 1.03-.439 1.697-1.214 1.697-.774 0-1.213-.664-1.213-1.697 0-1.034.433-1.698 1.213-1.698zm-.632 2.599l.987-2.109a.633.633 0 00-.367-.107c-.512 0-.797.505-.797 1.315-.009.31.056.62.19.9h-.013zm.256.316c.108.07.235.108.364.107.512 0 .797-.506.797-1.318a1.98 1.98 0 00-.174-.9l-.987 2.11zM3.785 20.281c.774 0 1.214.667 1.214 1.698 0 1.03-.44 1.697-1.214 1.697-.775 0-1.214-.664-1.214-1.697 0-1.034.433-1.698 1.214-1.698zm-.632 2.599l.986-2.109a.633.633 0 00-.367-.107c-.512 0-.796.505-.796 1.315-.01.31.056.62.19.9h-.013zm.256.316c.108.07.234.108.363.107.512 0 .797-.506.797-1.318a1.98 1.98 0 00-.174-.901l-.986 2.112zM5.811 23.638v-.36h.854v-2.361l-.816.493v-.437l1.078-.65h.152v2.955h.853v.36h-2.12zM8.75 23.638v-.36h.854v-2.361l-.831.493v-.437l1.078-.65h.152v2.955h.853v.36H8.751zM11.69 23.638v-.36h.854v-2.361l-.831.493v-.437l1.078-.65h.151v2.955h.854v.36H11.69zM14.63 23.638v-.36h.854v-2.361l-.832.493v-.437l1.078-.65h.152v2.955h.854v.36H14.63zM18.493 20.281c.775 0 1.214.667 1.214 1.698 0 1.03-.44 1.697-1.214 1.697s-1.214-.664-1.214-1.697c0-1.034.433-1.698 1.214-1.698zm-.632 2.599l.986-2.109a.633.633 0 00-.367-.107c-.512 0-.796.505-.796 1.315-.013.31.047.618.177.9zm.256.316c.108.07.234.108.363.107.513 0 .797-.506.797-1.318a1.98 1.98 0 00-.174-.901l-.986 2.112zM21.424 20.281c.774 0 1.213.667 1.213 1.698 0 1.03-.439 1.697-1.213 1.697-.775 0-1.214-.664-1.214-1.697 0-1.034.442-1.698 1.213-1.698zm-.633 2.599l.986-2.109a.632.632 0 00-.366-.107c-.512 0-.797.505-.797 1.315-.009.31.056.62.19.9h-.013zm.256.316c.108.07.235.108.364.107.512 0 .796-.506.796-1.318a1.979 1.979 0 00-.173-.901l-.987 2.112zM23.45 23.638v-.36h.853v-2.361l-.831.493v-.437l1.078-.65h.151v2.955h.854v.36H23.45zM27.303 20.281c.774 0 1.214.667 1.214 1.698 0 1.03-.44 1.697-1.214 1.697s-1.214-.664-1.214-1.697c0-1.034.443-1.698 1.214-1.698zm-.632 2.599l.986-2.109a.633.633 0 00-.367-.107c-.512 0-.796.505-.796 1.315-.01.31.056.62.19.9h-.013zm.256.316c.108.07.234.108.363.107.512 0 .797-.506.797-1.318a1.979 1.979 0 00-.174-.901l-.986 2.112zM30.243 20.281c.774 0 1.213.667 1.213 1.698 0 1.03-.439 1.697-1.213 1.697-.775 0-1.214-.664-1.214-1.697 0-1.034.442-1.698 1.214-1.698zm-.633 2.599l.987-2.109a.632.632 0 00-.367-.107c-.512 0-.797.505-.797 1.315-.009.31.056.62.19.9h-.013zm.256.316c.108.07.235.108.364.107.512 0 .797-.506.797-1.318a1.979 1.979 0 00-.174-.901l-.987 2.112zM32.269 23.638v-.36h.854v-2.361l-.832.493v-.437l1.078-.65h.152v2.955h.853v.36H32.27zM3.785 25.97c.774 0 1.214.668 1.214 1.698 0 1.03-.44 1.698-1.214 1.698-.775 0-1.214-.664-1.214-1.698 0-1.033.433-1.697 1.214-1.697zm-.632 2.6l.986-2.11a.633.633 0 00-.367-.107c-.512 0-.796.506-.796 1.315-.01.312.056.62.19.901h-.013zm.256.315c.108.071.234.109.363.108.512 0 .797-.506.797-1.318a1.979 1.979 0 00-.174-.901l-.986 2.111zM5.811 29.328v-.36h.854v-2.361l-.816.493v-.437l1.078-.65h.152v2.955h.853v.36h-2.12zM8.75 29.328v-.36h.854v-2.361l-.831.493v-.437l1.078-.65h.152v2.955h.853v.36H8.751zM12.604 25.97c.775 0 1.214.668 1.214 1.698 0 1.03-.44 1.698-1.214 1.698s-1.214-.664-1.214-1.698c0-1.033.443-1.697 1.214-1.697zm-.632 2.6l.986-2.11a.633.633 0 00-.367-.107c-.512 0-.796.506-.796 1.315-.01.312.056.62.19.901h-.013zm.256.315c.108.071.234.109.364.108.512 0 .796-.506.796-1.318a1.978 1.978 0 00-.174-.901l-.986 2.111zM15.544 25.97c.774 0 1.214.668 1.214 1.698 0 1.03-.44 1.698-1.214 1.698s-1.214-.664-1.214-1.698c0-1.033.443-1.697 1.214-1.697zm-.632 2.6l.986-2.11a.632.632 0 00-.367-.107c-.512 0-.796.506-.796 1.315-.01.312.056.62.19.901h-.013zm.256.315c.108.071.234.109.363.108.512 0 .797-.506.797-1.318a1.98 1.98 0 00-.174-.901l-.986 2.111zM17.57 29.328v-.36h.854v-2.361l-.832.493v-.437l1.078-.65h.14v2.955h.853v.36H17.57zM21.424 25.97c.774 0 1.213.668 1.213 1.698 0 1.03-.439 1.698-1.213 1.698-.775 0-1.214-.664-1.214-1.698 0-1.033.442-1.697 1.213-1.697zm-.633 2.6l.986-2.11a.632.632 0 00-.366-.107c-.512 0-.797.506-.797 1.315-.009.312.056.62.19.901h-.013zm.256.315c.108.071.235.109.364.108.512 0 .796-.506.796-1.318a1.978 1.978 0 00-.173-.901l-.987 2.111zM24.363 25.97c.775 0 1.214.668 1.214 1.698 0 1.03-.44 1.698-1.214 1.698s-1.214-.664-1.214-1.698c0-1.033.443-1.697 1.214-1.697zm-.632 2.6l.986-2.11a.633.633 0 00-.366-.107c-.512 0-.797.506-.797 1.315-.01.312.056.62.19.901h-.013zm.256.315c.108.071.234.109.364.108.512 0 .796-.506.796-1.318a1.978 1.978 0 00-.174-.901l-.986 2.111zM26.396 29.328v-.36h.853v-2.361l-.831.493v-.437l1.078-.65h.152v2.955h.853v.36h-2.105zM29.33 29.328v-.36h.859v-2.361l-.831.493v-.437l1.078-.65h.151v2.955h.854v.36h-2.112z" fill="#686675"/><path d="M36.827 26.929c-4.833 0-8.218 1.896-8.218 4.602v1.009c-1.445-.8-3.478-1.265-5.88-1.265-3.616 0-6.42 1.062-7.586 2.731l-.14.591-.467 14.541v1.524l.42.092c1.062 1.956 4.024 3.259 7.782 3.259 4.742 0 8.22-2.061 8.22-4.903v-.819c1.444.854 3.505 1.362 5.87 1.362 4.757 0 8.218-2.06 8.218-4.902V31.53c0-2.709-3.376-4.602-8.219-4.602z" fill="#fff"/><path d="M30.625 31.531v13.226l7.223 1.483 5.402-2.374V31.53H30.625zM16.54 35.9v13.223l7.22 1.482 5.402-2.37V35.9H16.54z" fill="#FFE7B0"/><path d="M29.162 42.75a11.064 11.064 0 01-6.322 1.69 11.064 11.064 0 01-6.322-1.69v2.617c.714 1.157 3.104 2.229 6.322 2.229s5.598-1.072 6.322-2.229V42.75z" fill="#FEC631"/><path d="M29.162 38.296c-1.23 1.11-3.594 1.862-6.322 1.862s-5.083-.753-6.322-1.862v2.563c.714 1.157 3.104 2.229 6.322 2.229s5.598-1.072 6.322-2.229v-2.563zM16.537 47.38v1.717c0 1.663 2.826 3.006 6.322 3.006s6.322-1.343 6.322-3.006v-1.716a11.064 11.064 0 01-6.322 1.694 11.064 11.064 0 01-6.323-1.694z" fill="#FEC631"/><path d="M22.85 38.577c3.485 0 6.312-1.211 6.312-2.706 0-1.494-2.827-2.706-6.313-2.706-3.486 0-6.313 1.212-6.313 2.706 0 1.495 2.827 2.706 6.313 2.706z" fill="#FE9C47"/><path d="M43.247 38.407a11.035 11.035 0 01-6.322 1.69c-2.23.09-4.434-.5-6.322-1.69v2.62c.711 1.157 3.104 2.228 6.322 2.228s5.598-1.071 6.322-2.228v-2.62z" fill="#FEC631"/><path d="M43.247 33.953c-1.23 1.11-3.594 1.861-6.322 1.861s-5.08-.752-6.322-1.861v2.563c.711 1.16 3.104 2.229 6.322 2.229s5.598-1.069 6.322-2.229v-2.563zM30.625 43.04v1.717c0 1.66 2.826 3.006 6.322 3.006s6.322-1.346 6.322-3.006v-1.716a11.063 11.063 0 01-6.322 1.69 11.063 11.063 0 01-6.322-1.69z" fill="#FEC631"/><path d="M36.938 34.237c3.486 0 6.312-1.211 6.312-2.706 0-1.494-2.826-2.706-6.312-2.706-3.487 0-6.313 1.212-6.313 2.706 0 1.495 2.826 2.706 6.313 2.706z" fill="#FE9C47"/><path opacity=".3" d="M39.008 10.191L28.82 0h-1.027v6.954a4.251 4.251 0 004.252 4.252h6.954l.01-1.015z" fill="#686675"/><path d="M28.82 6.727a3.477 3.477 0 003.477 3.477h6.711L28.82.013v6.714z" fill="#DFDFDF"/></g><defs><clipPath id="clip0"><path fill="#fff" transform="translate(.245)" d="M0 0h44.801v54H0z"/></clipPath></defs></svg>