<svg width="55" height="42" viewBox="0 0 55 42" fill="none" xmlns="http://www.w3.org/2000/svg"><g clip-path="url(#clip0)"><path d="M17.347 19.134L-.019 33.99v-.31L.41 4.378v-.809l12.088 10.38 5.303 4.775-.453.41z" fill="#DADADA"/><path d="M44.636 32.616l3.722 3.29a2.945 2.945 0 01-2.301 1.007l-3.933-.056-9.427-.143H30.787l-27.99-.416a2.966 2.966 0 01-1.86-.622l17.787-15.242.471-.404 2.283 2.052a4.886 4.886 0 006.282.093l2.481-2.09.472.411 3.219 2.824 1.29 1.131.254.224.093.081 6.084 5.33 1.37 1.206 1.241 1.063.341.305.031-.044z" fill="#686675"/><path d="M49.387 4.154l-.012.802-.15 10.068-.03 1.953v.366l-.118 7.873-.012.66-.007.665-.006.292-.105 7.108-5.545-4.857-4.006-3.513-.466-.41-.415-.362-.862-.752-.068-.062h-.007l-.136-.125-.013-.012-1.383-1.212-3.882-3.402-.471-.417 5.309-4.508L49.387 4.154z" fill="#9D9D9C"/><g opacity=".8"><path opacity=".8" d="M44.636 32.616l3.722 3.29a2.945 2.945 0 01-2.301 1.007l-3.933-.056-9.427-.143H30.787l-27.99-.416a2.966 2.966 0 01-1.86-.622l17.787-15.242.471-.404 2.283 2.052a4.886 4.886 0 006.282.093l2.481-2.09.472.411 3.219 2.824 1.29 1.131.254.224.093.081 6.084 5.33 1.37 1.206 1.241 1.063.341.305.031-.044z" fill="#B2B2B2"/><path opacity=".2" d="M44.636 32.616l3.722 3.29a2.945 2.945 0 01-2.301 1.007l-3.933-.056-9.427-.143H30.787l-27.99-.416a2.966 2.966 0 01-1.86-.622l17.787-15.242.471-.404 2.283 2.052a4.886 4.886 0 006.282.093l2.481-2.09.472.411 3.219 2.824 1.29 1.131.254.224.093.081 6.084 5.33 1.37 1.206 1.241 1.063.341.305.031-.044z" fill="#fff"/><path opacity=".2" d="M44.636 32.616l3.722 3.29a2.945 2.945 0 01-2.301 1.007l-3.933-.056-9.427-.143H30.787l-27.99-.416a2.966 2.966 0 01-1.86-.622l17.787-15.242.471-.404 2.283 2.052a4.886 4.886 0 006.282.093l2.481-2.09.472.411 3.219 2.824 1.29 1.131.254.224.093.081 6.084 5.33 1.37 1.206 1.241 1.063.341.305.031-.044z" fill="#fff"/><path opacity=".2" d="M44.636 32.616l3.722 3.29a2.945 2.945 0 01-2.301 1.007l-3.933-.056-9.427-.143H30.787l-27.99-.416a2.966 2.966 0 01-1.86-.622l17.787-15.242.471-.404 2.283 2.052a4.886 4.886 0 006.282.093l2.481-2.09.472.411 3.219 2.824 1.29 1.131.254.224.093.081 6.084 5.33 1.37 1.206 1.241 1.063.341.305.031-.044z" fill="#fff"/><path opacity=".2" d="M44.636 32.616l3.722 3.29a2.945 2.945 0 01-2.301 1.007l-3.933-.056-9.427-.143H30.787l-27.99-.416a2.966 2.966 0 01-1.86-.622l17.787-15.242.471-.404 2.283 2.052a4.886 4.886 0 006.282.093l2.481-2.09.472.411 3.219 2.824 1.29 1.131.254.224.093.081 6.084 5.33 1.37 1.206 1.241 1.063.341.305.031-.044z" fill="#fff"/><path opacity=".2" d="M44.636 32.616l3.722 3.29a2.945 2.945 0 01-2.301 1.007l-3.933-.056-9.427-.143H30.787l-27.99-.416a2.966 2.966 0 01-1.86-.622l17.787-15.242.471-.404 2.283 2.052a4.886 4.886 0 006.282.093l2.481-2.09.472.411 3.219 2.824 1.29 1.131.254.224.093.081 6.084 5.33 1.37 1.206 1.241 1.063.341.305.031-.044z" fill="#B2B2B2"/></g><path d="M36.047 22.636l-.031.174a3.255 3.255 0 00-2.072.466l-3.219-2.823-.471-.41 1.439-1.244.471.416 3.883 3.42z" fill="#575756"/><path d="M48.978 33.94v.461a2.36 2.36 0 01-.577 1.505l-3.721-3.29-.341-.304-1.24-1.064-1.378-1.206-6.084-5.33-.093-.08-.26-.224-1.29-1.132a3.255 3.255 0 012.071-.466l.031-.174 1.383 1.212.143.125.068.062.862.752.416.36.465.411 4.006 3.514 5.539 4.869z" fill="#B2B2B2"/><path d="M19.208 19.986l-.471.405L.948 35.632a2.489 2.489 0 01-.955-1.642L17.36 19.134l.477-.41 1.37 1.262z" fill="#575756"/><path d="M20.312 19.054l-1.086.932-1.395-1.262 1.085-.927 1.396 1.257zM29.913 17.263L28.48 18.48l-.478-.416-3.23-2.83-3.276 2.805-.477.41-1.396-1.262.478-.41 4.683-4.011 4.657 4.079.472.417zM31.693 18.817l-1.44 1.225-1.054-.926 1.433-1.225 1.06.926z" fill="#B2B2B2"/><path d="M51.98 27.026l-16.027-2.65a1.74 1.74 0 00-2.003 1.443l-1.631 9.95a1.754 1.754 0 00.8 1.775c.195.121.412.203.639.24l16.026 2.643a1.754 1.754 0 002.01-1.443l1.63-9.95a1.743 1.743 0 00-1.444-2.008zm-7.716 5.945l-.174 1.063a1.418 1.418 0 01-1.63 1.175 1.42 1.42 0 01-1.167-1.635l.168-1.008a1.97 1.97 0 011.413-3.096c.286-.027.574.009.844.105a1.953 1.953 0 011.29 1.785 1.963 1.963 0 01-.744 1.61z" fill="#FEC633"/><path d="M45.008 31.36a1.963 1.963 0 01-.744 1.61l-.174 1.064a1.418 1.418 0 01-1.63 1.175 1.42 1.42 0 01-1.167-1.635l.168-1.008a1.969 1.969 0 011.413-3.096c.286-.027.574.009.844.105a1.954 1.954 0 011.29 1.785zM37.41 23.954l-.104.622 2.977.49.105-.62-2.977-.492zm10.408 1.716l-.105.622 2.964.491.106-.622-2.965-.49z" fill="#FEC633"/><path d="M37.516 23.307l-.21 1.294 2.977.49.21-1.293-2.977-.49zm10.407 1.716l-.21 1.294 2.964.491.211-1.293-2.965-.492z" fill="#1D1D1B"/><path d="M45.213 18.258a3.75 3.75 0 00-3.824 1.726 3.775 3.775 0 00-.517 1.383l-.62 3.731 7.442 1.244.62-3.731a3.796 3.796 0 00-.653-2.82 3.776 3.776 0 00-2.448-1.533zm1.42 6.554l-4.85-.802.404-2.432c.112-.64.47-1.21.996-1.588a2.476 2.476 0 011.82-.439 2.48 2.48 0 011.59 1c.38.528.536 1.186.437 1.83l-.397 2.431z" fill="#fff" stroke="#fff" stroke-width=".55" stroke-miterlimit="10"/><path d="M52.47 25.508l.36-2.188a8.385 8.385 0 00-.582-4.69 8.359 8.359 0 00-3.022-3.625 8.26 8.26 0 00-3.269-1.293 8.325 8.325 0 00-6.213 1.456 8.367 8.367 0 00-3.369 5.434l-.329 2.015-.03.174a3.256 3.256 0 00-2.072.466 3.298 3.298 0 00-1.544 2.289l-1.631 9.95a3.118 3.118 0 000 1.175 3.29 3.29 0 002.704 2.643l16.032 2.642a3.3 3.3 0 002.461-.577 3.315 3.315 0 001.335-2.152l1.63-9.95a3.322 3.322 0 00-.494-2.368 3.306 3.306 0 00-1.968-1.4zm.694 3.464l-1.631 9.95a1.49 1.49 0 01-1.127 1.225c-.192.045-.39.051-.585.019L37.194 38.07l-3.374-.554a1.462 1.462 0 01-1.086-.802 1.527 1.527 0 01-.142-.914l1.631-9.95a1.482 1.482 0 011.141-1.206.43.43 0 01.155 0c.136-.025.274-.025.41 0l1.364.224.248.037.044-.248.093-.622v-.05l.105-.622.397-2.431a6.538 6.538 0 012.633-4.236 6.505 6.505 0 014.847-1.137 6.5 6.5 0 013.535 1.816 6.525 6.525 0 011.86 5.696l-.397 2.431-.21 1.294-.044.248.254.044 1.297.211a1.482 1.482 0 011.21 1.692v-.019z" fill="#fff"/><path d="M51.291 23.083l-.657 4.011-2.971-.491.657-4.011a3.795 3.795 0 00-.653-2.82 3.776 3.776 0 00-5.264-.885 3.764 3.764 0 00-1.525 2.461l-.657 4.011-2.977-.491.657-4.011a6.8 6.8 0 012.737-4.413 6.765 6.765 0 015.047-1.184 6.768 6.768 0 014.424 2.744 6.803 6.803 0 011.182 5.08z" fill="#CCC"/><path opacity=".4" d="M31.662 37.809l10.233.491 1.923-11.734-9.942-2.24-2.214 13.483z" fill="#fff"/><path d="M44.27 32.97l-.173 1.064a1.43 1.43 0 01-1.638 1.175 1.03 1.03 0 01-.235-.068 1.406 1.406 0 001.377-1.188l.173-1.063a1.959 1.959 0 00.745-1.617 1.969 1.969 0 00-1.29-1.779.38.38 0 00-.112-.03c.211.003.42.041.62.111a1.979 1.979 0 011.29 1.785 1.995 1.995 0 01-.757 1.61z" fill="#878787"/><path d="M43.774 32.89l-.173 1.063a1.413 1.413 0 01-1.377 1.188 1.396 1.396 0 01-.93-1.573l.167-1.002a1.936 1.936 0 01-.335-1.46 1.95 1.95 0 011.99-1.642.38.38 0 01.112.03 1.96 1.96 0 011.29 1.779 1.962 1.962 0 01-.744 1.617z" fill="#686675"/><path d="M48.587 1.412l-.837.709-10.705 9.085-7.132 6.063-1.433 1.244-.62.54a4.892 4.892 0 01-6.29-.093l-.533-.479-1.395-1.243-7.052-6.35L2.17 1.512 1.347.765c.16-.142.337-.263.527-.36A3.039 3.039 0 013.355.05l43.26.622a2.984 2.984 0 011.463.391c.184.095.355.212.509.349z" fill="#CCC"/><path opacity=".2" d="M48.587 1.412l-.837.709-10.705 9.085-7.132 6.063-1.433 1.244-.62.54a4.892 4.892 0 01-6.29-.093l-.533-.479-1.395-1.243-7.052-6.35L2.17 1.512 1.347.765c.16-.142.337-.263.527-.36A3.039 3.039 0 013.355.05l43.26.622a2.984 2.984 0 011.463.391c.184.095.355.212.509.349z" fill="#fff"/><path opacity=".2" d="M47.737 2.12l-10.692 9.086-7.132 6.063-1.433 1.244-.62.54a4.892 4.892 0 01-6.29-.093l-.533-.479-1.395-1.243-7.052-6.35L2.17 1.512c.377-.152.78-.226 1.185-.218l43.26.622c.384-.003.764.067 1.122.206z" fill="#B2B2B2"/><path d="M49.139 2.133l-.583.497-11.511 9.82-6.413 5.447-1.433 1.244-1.358 1.15a4.892 4.892 0 01-6.289-.093l-1.24-1.12-1.396-1.243-6.344-5.715L1.408 1.934l-.62-.56C.93 1.14 1.11.93 1.32.752l.825.747 10.42 9.377 7.051 6.35 1.396 1.243.533.479a4.892 4.892 0 006.289.093l.62-.54 1.433-1.245 7.132-6.063 10.705-9.079.837-.709c.236.204.432.451.577.728z" fill="#686675"/><path opacity=".4" d="M49.139 2.133l-.583.497-11.511 9.82-6.413 5.447-1.433 1.244-1.358 1.15a4.892 4.892 0 01-6.289-.093l-1.24-1.12-1.396-1.243-6.344-5.715L1.408 1.934l-.62-.56C.93 1.14 1.11.93 1.32.752l.825.747 10.42 9.377 7.051 6.35 1.396 1.243.533.479a4.892 4.892 0 006.289.093l.62-.54 1.433-1.245 7.132-6.063 10.705-9.079.837-.709c.236.204.432.451.577.728z" fill="#fff"/><path d="M12.572 12.083L1.327 1.959l.08-.062 11.165 10.186zM48.587 2.655L37.045 12.45l11.511-9.813.031.018z" fill="#fff"/><path d="M49.4 3.234v.92L36.995 14.309l-5.309 4.508-1.439 1.244-2.48 2.09a4.886 4.886 0 01-6.283-.094l-2.282-2.052-1.396-1.244-5.303-4.775L.416 3.605V2.55c.007-.415.122-.82.334-1.176l.62.56L12.535 12.12l6.345 5.715 1.396 1.243 1.24 1.12a4.892 4.892 0 006.289.093l1.358-1.15 1.433-1.244 6.413-5.447 11.51-9.813.584-.498c.19.334.292.71.298 1.095z" fill="#575756"/><path d="M36.047 22.636l-.031.174a3.255 3.255 0 00-2.072.466l-3.219-2.823-.471-.41 1.439-1.244.471.416 3.883 3.42zM19.208 19.986l-.471.405L.948 35.632a2.489 2.489 0 01-.955-1.642L17.36 19.134l.477-.41 1.37 1.262z" fill="#575756"/><path d="M49.4 3.234v.92L36.995 14.309l-5.309 4.508-1.439 1.244-2.48 2.09a4.886 4.886 0 01-6.283-.094l-2.282-2.052-1.396-1.244-5.303-4.775L.416 3.605V2.55c.007-.415.122-.82.334-1.176l.62.56L12.535 12.12l6.345 5.715 1.396 1.243 1.24 1.12a4.892 4.892 0 006.289.093l1.358-1.15 1.433-1.244 6.413-5.447 11.51-9.813.584-.498c.19.334.292.71.298 1.095z" fill="#575756"/><path opacity=".2" d="M49.4 3.234v.92L36.995 14.309l-5.309 4.508.472.417 3.882 3.401-.03.175a3.255 3.255 0 00-2.072.466l-3.22-2.823-.47-.41-2.481 2.089a4.885 4.885 0 01-6.283-.094l-2.282-2.052-.472.405L.943 35.632a2.489 2.489 0 01-.955-1.642l17.365-14.856.478-.41-5.303-4.776L.44 3.57V2.512c.008-.414.123-.82.335-1.175l.62.56L12.56 12.083l6.345 5.714 1.395 1.244 1.24 1.12a4.892 4.892 0 006.29.093l1.358-1.15 1.433-1.244 6.413-5.448L48.543 2.6l.584-.497c.187.347.28.737.273 1.132z" fill="#fff"/></g><defs><clipPath id="clip0"><path fill="#fff" d="M0 0h55v42H0z"/></clipPath></defs></svg>