<svg xmlns="http://www.w3.org/2000/svg" viewBox="0 0 544.25 127.67"><defs><linearGradient id="linear-gradient" y1="63.83" x2="131.67" y2="63.83" gradientUnits="userSpaceOnUse"><stop offset="0" stop-color="#18e8d9"/><stop offset="1" stop-color="#009ee2"/></linearGradient><style>.cls-1{fill:#fff}</style></defs><g id="Layer_2" data-name="Layer 2"><g id="Layer_1-2" data-name="Layer 1"><path class="cls-1" d="M211.71 62v27.41h-9.32V62c0-4.59-2.56-7.44-6.62-7.44s-6.62 2.85-6.62 7.44v27.41h-9.32V62c0-4.59-2.48-7.44-6.54-7.44s-6.61 2.85-6.61 7.44v27.41h-9.33V62c0-9.77 5.72-16.16 15.94-16.16a13.22 13.22 0 0111.2 5.63 13.38 13.38 0 0111.28-5.63C206 45.81 211.71 52.2 211.71 62zM253.89 46.56v42.85c0 12.33-6.92 18-18.35 18-6.24 0-12.78-2.1-17.21-6.76l5.34-6.39a15.67 15.67 0 0011.42 4.88c6.54 0 10.23-2.1 10.23-9.77v-5.6c-2.71 3.53-6.84 5.34-12 5.34-9.62 0-14.89-6.17-14.89-17.59v-25h9.33v25.15c0 5.48 3.23 8.72 8.42 8.72s8.42-3.39 8.42-9.47V46.56zM310.58 36v53.41h-9V50.84l-10.68 20.3h-9l-10.72-20.22v38.49h-9V36H272l14.36 27.14L300.73 36zM336.44 81.89a10.3 10.3 0 009.7-5.49l7.59 3.76c-3.83 7-9.92 10-17.51 10C324 90.16 316.67 83 316.67 68c0-15.48 7.67-22.17 19.4-22.17s18.19 6.76 18.19 21.65V71h-28.42c.68 7.66 3.99 10.89 10.6 10.89zm-10.52-18.42h19.39c-.75-6.31-3.6-9.4-9.62-9.4-5.86 0-8.87 3.01-9.77 9.4zM373.21 45.88c8 0 13.83 3.31 16.91 9.62l-7.81 3.76c-1.66-3.76-4.44-5.34-9.1-5.34-4.21 0-6.17 1.43-6.17 3.91 0 8.5 23.08 3.09 23.08 19.25 0 8.2-6.69 13.08-16.76 13.08-7.82 0-14.21-2.93-17.37-10.75l7.82-3c1.58 4.29 5 5.64 9.77 5.64 4.59 0 7.37-1.35 7.37-4.51 0-8.42-23.08-2.25-23.08-19 0-8 5.87-12.66 15.34-12.66zM408.85 45.88c8 0 13.83 3.31 16.91 9.62l-7.82 3.76c-1.65-3.76-4.43-5.34-9.09-5.34-4.21 0-6.17 1.43-6.17 3.91 0 8.5 23.08 3.09 23.08 19.25 0 8.2-6.69 13.08-16.76 13.08-7.82 0-14.21-2.93-17.37-10.75l7.82-3c1.58 4.29 5 5.64 9.77 5.64 4.59 0 7.37-1.35 7.37-4.51 0-8.42-23.08-2.25-23.08-19 0-8 5.86-12.66 15.34-12.66zM463.2 63.4V75c0 9.84-6.24 15.18-18.41 15.18-10.91 0-16.92-5.56-16.92-12.93s5-12.63 15.94-12.63h10.07v-1.97c0-5.79-2.7-8.12-7.67-8.12-4.58 0-7.66 2-9.39 6.24l-8-4.21c3.83-7.75 9.17-10.75 17.51-10.75 10.86 0 16.87 5.03 16.87 17.59zM453.88 75v-2.88h-10.07c-4.29 0-6.62 1.5-6.62 4.88 0 2.79 2.18 4.74 8.35 4.74 4.81 0 8.34-1.74 8.34-6.74zM505.61 54.07l-5.79-.3a17.61 17.61 0 011.35 7.15c0 9-4.73 14.28-14 15.26v3.53c12.4.38 16.39 6.09 16.39 13.76 0 8.8-5.34 13.91-19.77 13.91-14.59 0-19.63-5.11-19.63-13.84h9.1c0 4.44 2.41 6.09 10.38 6.09 7.51 0 10-1.5 10-6.09 0-3.68-1.57-6.09-7.66-6.09h-7.07V76c-8.27-1.35-12.41-6.46-12.41-15 0-9.77 5.64-15.18 17.37-15.18a27.38 27.38 0 016.39.67h15.34zm-13.31 7c0-4.81-2.78-7.52-8.42-7.52-5.79 0-8.49 2.71-8.49 7.52 0 5 2.7 7.52 8.49 7.52 5.64 0 8.42-2.49 8.42-7.52zM526.44 81.89a10.28 10.28 0 009.69-5.49l7.6 3.76c-3.84 7-9.93 10-17.52 10C514 90.16 506.66 83 506.66 68c0-15.48 7.67-22.17 19.4-22.17s18.19 6.76 18.19 21.65V71h-28.41c.67 7.66 3.98 10.89 10.6 10.89zm-10.53-18.42h19.4c-.75-6.31-3.61-9.4-9.62-9.4s-8.88 3.01-9.78 9.4z"/><path d="M131.67 35.55v77a15 15 0 01-2.66 8.55.24.24 0 01-.06.08 15.06 15.06 0 01-24.85-.2 14.85 14.85 0 01-2.46-6.56V87.27 39.64a29.09 29.09 0 000-4.94 5.24 5.24 0 00-10.28.08 23.15 23.15 0 000 4.56V116.64a5 5 0 01-1.51 3.62 5.08 5.08 0 01-3.72 1.52H86a5 5 0 01-3.63-1.52 4.92 4.92 0 01-1.51-3.62v-80.9a15.69 15.69 0 1131.37 0V113.05a4.49 4.49 0 008.93.06 4.52 4.52 0 000-1V35.55a24.23 24.23 0 00-7.34-17.74 24.63 24.63 0 00-10-6.22l-.84-.25-.86-.22-.9-.19a27.16 27.16 0 00-5-.46h-.9a7.73 7.73 0 00-.84 0 24 24 0 00-15.92 7.27 24.2 24.2 0 00-7.35 17.74v81.09a5.16 5.16 0 01-5.21 5.21h-.17a5.07 5.07 0 01-3.72-1.51 5 5 0 01-1.52-3.63V35.55a24.19 24.19 0 00-7.34-17.74 24.1 24.1 0 00-17.66-7.34 24.09 24.09 0 00-17.69 7.34 24.23 24.23 0 00-7.34 17.74v76.52a4.52 4.52 0 000 1 4.49 4.49 0 008.93-.06v-.46V35.74A15.68 15.68 0 0130 20.9a15.79 15.79 0 0110.28 0 15.68 15.68 0 0110.59 14.84v80.9a4.89 4.89 0 01-1.52 3.62 5 5 0 01-3.63 1.52h-.17a5.08 5.08 0 01-3.72-1.52 5 5 0 01-1.51-3.62V79.18 44.4v-5.06a22.4 22.4 0 000-4.56 5.23 5.23 0 00-10.27-.08 28.08 28.08 0 000 4.94V114.46a15.08 15.08 0 01-27.38 6.68A15 15 0 010 112.59v-77a34.24 34.24 0 0110.39-25.2A34.24 34.24 0 0135.55 0q17.56 0 30.33 16.55Q77.91.83 94.38 0H96.1a34.24 34.24 0 0125.16 10.39 34.24 34.24 0 0110.41 25.16z" fill="url(#linear-gradient)"/></g></g></svg>