<svg width="57" height="62" viewBox="0 0 57 62" fill="none" xmlns="http://www.w3.org/2000/svg"><g clip-path="url(#clip0)"><path d="M46.047 13.026l-15.73-2.802-15.73-2.803a4.852 4.852 0 00-3.647.799 4.871 4.871 0 00-2.008 3.155L1.969 50.642a4.9 4.9 0 002.177 4.977c.54.346 1.142.581 1.773.693l15.736 2.803 15.736 2.809a4.872 4.872 0 003.64-.81 4.896 4.896 0 002.01-3.15l6.962-39.268a4.904 4.904 0 00-.806-3.657 4.883 4.883 0 00-3.15-2.013z" fill="#878787"/><path d="M48.11 15.7l-6.957 39.267a4.89 4.89 0 01-2.011 3.151 4.866 4.866 0 01-3.644.803l-15.736-2.803L28.43 7.251l15.735 2.802a4.87 4.87 0 013.136 2.006 4.892 4.892 0 01.808 3.64z" fill="#CCC"/><path d="M28.43 7.25l-8.668 48.892-15.724-2.826A4.869 4.869 0 01.891 51.3a4.895 4.895 0 01-.803-3.655L7.05 8.379a4.896 4.896 0 012.01-3.155 4.87 4.87 0 013.646-.806L28.43 7.252z" fill="#CCC"/><path d="M11.832 7.28c.117 0 .233.012.346.035l15.736 2.803L43.65 12.92a1.96 1.96 0 011.577 2.262L38.263 54.45a1.94 1.94 0 01-2.257 1.58l-15.735-2.802-15.736-2.803a1.936 1.936 0 01-1.557-1.502 1.95 1.95 0 01-.014-.76L9.9 8.896a1.958 1.958 0 011.91-1.616h.024zm-.023-2.938a4.868 4.868 0 00-3.128 1.145A4.891 4.891 0 007.015 8.38L.053 47.646a4.9 4.9 0 00.816 3.666 4.882 4.882 0 003.169 2.004l15.736 2.802 15.735 2.803a4.875 4.875 0 003.985-1.066 4.897 4.897 0 001.67-2.888L48.122 15.7a4.895 4.895 0 00-.799-3.655 4.875 4.875 0 00-3.145-2.015L28.43 7.25 12.694 4.443a5.453 5.453 0 00-.862-.076l-.023-.024z" fill="#DADADA"/><path d="M13.016 39.138a4.052 4.052 0 01-.433-.558 4.416 4.416 0 01-.551-2.762c.129-.948.359-1.88.685-2.78.1-.482.365-.915.75-1.221a1.45 1.45 0 01.686-.194h.452l4.225.082c.214 0 .428.018.639.053.16.379.28.772.363 1.175.27 1.093.756 2.168.692 3.29-.2 3.72-4.765 4.59-7.508 2.915zM19.211 28.238l-6.482.083c-.457-1.252-.504-3.579-.539-4.06-.205-2.456-.469-4.924.123-7.357.739-3.067 3.932-7.18 7.285-5.112 1.559 1.646 1.916 4.325 2.045 6.464.299 4.888-2.432 9.982-2.432 9.982z" fill="#686675"/><path d="M13.016 39.138a4.052 4.052 0 01-.433-.558 4.416 4.416 0 01-.551-2.762c.129-.948.359-1.88.685-2.78.1-.482.365-.915.75-1.221a1.45 1.45 0 01.686-.194h.452l4.225.082c.214 0 .428.018.639.053.16.379.28.772.363 1.175.27 1.093.756 2.168.692 3.29-.2 3.72-4.765 4.59-7.508 2.915zM19.211 28.238l-6.482.083c-.457-1.252-.504-3.579-.539-4.06-.205-2.456-.469-4.924.123-7.357.739-3.067 3.932-7.18 7.285-5.112 1.559 1.646 1.916 4.325 2.045 6.464.299 4.888-2.432 9.982-2.432 9.982z" fill="#686675"/><g opacity=".2" fill="#fff"><path opacity=".2" d="M13.016 39.138a4.06 4.06 0 01-.433-.558 4.417 4.417 0 01-.551-2.762c.129-.948.359-1.88.685-2.78.1-.482.365-.915.75-1.221a1.45 1.45 0 01.686-.194h.451l4.226.082c.214 0 .428.018.639.053.16.379.28.772.363 1.175.27 1.093.756 2.168.692 3.29-.2 3.72-4.765 4.59-7.508 2.915zM19.211 28.238l-6.482.083c-.457-1.252-.504-3.579-.539-4.06-.205-2.456-.469-4.924.123-7.357.739-3.067 3.932-7.18 7.285-5.112 1.559 1.646 1.916 4.325 2.045 6.464.299 4.888-2.432 9.982-2.432 9.982z"/></g><path d="M13.016 39.138c2.737 1.674 7.309.805 7.508-2.938.064-1.122-.422-2.198-.692-3.29a6.27 6.27 0 00-.363-1.175c.13.025.256.068.375.129.633.335.791 1.175.961 1.857.27 1.092.762 2.162.698 3.284-.23 4.23-6.066 4.8-8.487 2.133zM20.19 29.038l-6.746.088c-.316 0-.545-.318-.715-.805l6.482-.083s2.731-5.094 2.432-9.988c-.129-2.145-.486-4.824-2.045-6.463.17.104.334.218.492.34 1.97 1.575 2.391 4.583 2.532 6.928.293 4.888-2.432 9.983-2.432 9.983z" fill="#B3B3B3"/><path d="M13.016 39.138c2.737 1.674 7.309.805 7.508-2.938.064-1.122-.422-2.198-.692-3.29a6.27 6.27 0 00-.363-1.175c.13.025.256.068.375.129.633.335.791 1.175.961 1.857.27 1.092.762 2.162.698 3.284-.23 4.23-6.066 4.8-8.487 2.133zM20.19 29.038l-6.746.088c-.316 0-.545-.318-.715-.805l6.482-.083s2.731-5.094 2.432-9.988c-.129-2.145-.486-4.824-2.045-6.463.17.104.334.218.492.34 1.97 1.575 2.391 4.583 2.532 6.928.293 4.888-2.432 9.983-2.432 9.983z" fill="#686675"/><g opacity=".4" fill="#fff"><path opacity=".4" d="M13.016 39.138c2.737 1.674 7.309.805 7.508-2.938.064-1.122-.422-2.198-.692-3.29a6.269 6.269 0 00-.363-1.176c.13.026.256.07.375.13.633.335.791 1.175.961 1.856.27 1.093.762 2.163.698 3.285-.23 4.23-6.066 4.8-8.487 2.133zM20.19 29.038l-6.746.088c-.316 0-.545-.318-.715-.805l6.482-.083s2.731-5.094 2.432-9.988c-.129-2.145-.486-4.824-2.045-6.463.17.104.334.218.492.34 1.97 1.575 2.391 4.583 2.532 6.928.293 4.888-2.432 9.983-2.432 9.983z"/></g><path d="M30.575 49.585a4.373 4.373 0 01-1.465 2.397c-.184.144-.38.272-.587.382a5.677 5.677 0 01-5.901-.764 3.631 3.631 0 01-.54-3.337c.329-1.075 1.173-1.91 1.759-2.844.404-.588.838-1.31 1.541-1.41.132-.02.267-.02.399 0 .211.04.419.096.62.17l3.992 1.38c.138.045.273.098.404.16.086.33.116.67.088 1.01-.002.96-.106 1.918-.31 2.856zM34.402 38.68c-.2.44-1.05 2.608-1.905 3.625-.328.393-.65.587-.95.505l-5.567-2.133c-.14-1.522-.387-6.005 1.207-9.66.944-2.156 2.345-4.83 4.759-5.628.2-.065.398-.112.586-.153a3.356 3.356 0 012.86.64 8.831 8.831 0 011.424 5.876c-.287 2.462-1.383 4.689-2.414 6.927z" fill="#686675"/><path d="M30.575 49.585a4.373 4.373 0 01-1.465 2.397c-.184.144-.38.272-.587.382a5.677 5.677 0 01-5.901-.764 3.631 3.631 0 01-.54-3.337c.329-1.075 1.173-1.91 1.759-2.844.404-.588.838-1.31 1.541-1.41.132-.02.267-.02.399 0 .211.04.419.096.62.17l3.992 1.38c.138.045.273.098.404.16.086.33.116.67.088 1.01-.002.96-.106 1.918-.31 2.856zM34.402 38.68c-.2.44-1.05 2.608-1.905 3.625-.328.393-.65.587-.95.505l-5.567-2.133c-.14-1.522-.387-6.005 1.207-9.66.944-2.156 2.345-4.83 4.759-5.628.2-.065.398-.112.586-.153a3.356 3.356 0 012.86.64 8.831 8.831 0 011.424 5.876c-.287 2.462-1.383 4.689-2.414 6.927z" fill="#686675"/><path d="M31.372 50.407a4.386 4.386 0 01-1.471 2.398c-.183.144-.38.27-.586.376a5.619 5.619 0 01-6.693-1.58 5.683 5.683 0 005.901.763c.207-.11.403-.238.587-.382a4.372 4.372 0 001.465-2.397c.205-.934.311-1.888.316-2.844a3.045 3.045 0 00-.088-1.01c.227.085.428.227.586.41.26.423.363.925.287 1.417.002.958-.1 1.913-.304 2.85zM35.193 39.502c-.194.44-1.043 2.609-1.905 3.625-.322.394-.65.617-.944.506l-6.3-2.41-.064-.546 5.567 2.133c.3.112.622-.112.95-.505.855-1.017 1.705-3.185 1.905-3.626 1.031-2.238 2.127-4.465 2.408-6.95a8.831 8.831 0 00-1.424-5.876c1.758 1.387 2.473 4.483 2.221 6.675-.281 2.509-1.377 4.736-2.414 6.974z" fill="#B3B3B3"/><path d="M31.372 50.407a4.386 4.386 0 01-1.471 2.398c-.183.144-.38.27-.586.376a5.619 5.619 0 01-6.693-1.58 5.683 5.683 0 005.901.763c.207-.11.403-.238.587-.382a4.372 4.372 0 001.465-2.397c.205-.934.311-1.888.316-2.844a3.045 3.045 0 00-.088-1.01c.227.085.428.227.586.41.26.423.363.925.287 1.417.002.958-.1 1.913-.304 2.85zM35.193 39.502c-.194.44-1.043 2.609-1.905 3.625-.322.394-.65.617-.944.506l-6.3-2.41-.064-.546 5.567 2.133c.3.112.622-.112.95-.505.855-1.017 1.705-3.185 1.905-3.626 1.031-2.238 2.127-4.465 2.408-6.95a8.831 8.831 0 00-1.424-5.876c1.758 1.387 2.473 4.483 2.221 6.675-.281 2.509-1.377 4.736-2.414 6.974z" fill="#686675"/><g opacity=".2" fill="#fff"><path opacity=".2" d="M30.575 49.585a4.374 4.374 0 01-1.465 2.397c-.184.144-.38.272-.587.382a5.677 5.677 0 01-5.901-.764 3.631 3.631 0 01-.54-3.337c.329-1.076 1.173-1.91 1.759-2.844.404-.588.838-1.31 1.541-1.41.132-.02.267-.02.399 0 .211.04.419.096.62.17l3.992 1.38c.138.045.273.098.404.16.086.329.116.67.088 1.01-.002.96-.106 1.918-.31 2.856zM34.402 38.68c-.2.44-1.05 2.608-1.905 3.625-.328.393-.65.587-.95.505l-5.567-2.133c-.14-1.522-.387-6.005 1.207-9.66.944-2.156 2.345-4.83 4.759-5.628.2-.065.398-.112.586-.153a3.356 3.356 0 012.86.64 8.831 8.831 0 011.424 5.876c-.287 2.462-1.383 4.689-2.414 6.927z"/></g><g opacity=".4" fill="#fff"><path opacity=".4" d="M31.372 50.407a4.386 4.386 0 01-1.471 2.398c-.183.144-.38.27-.586.376a5.619 5.619 0 01-6.693-1.58 5.683 5.683 0 005.901.763c.207-.11.403-.238.587-.382a4.372 4.372 0 001.465-2.397c.205-.934.311-1.888.316-2.844a3.045 3.045 0 00-.088-1.01c.227.085.428.227.586.41.26.423.363.925.287 1.417.002.958-.1 1.913-.304 2.85zM35.193 39.502c-.194.44-1.043 2.609-1.905 3.625-.322.394-.65.617-.943.506l-6.3-2.41-.065-.546 5.567 2.133c.3.112.622-.112.95-.505.856-1.017 1.705-3.185 1.905-3.626 1.031-2.238 2.127-4.465 2.408-6.95a8.83 8.83 0 00-1.424-5.876c1.758 1.387 2.473 4.483 2.221 6.675-.28 2.509-1.377 4.736-2.414 6.974z"/></g><path d="M43.773 21.352c-.375.253-.721.488-1.061.7a.374.374 0 01-.405 0c-.62-.4-1.283-.853-2.074-1.417a43.132 43.132 0 01-5.767-4.824c-2.168-2.185-3.176-4.447-3.077-6.91a5.802 5.802 0 011.443-3.782 5.774 5.774 0 013.562-1.91s.229-.03.293-.03c.153-.01.305-.01.457 0a7.08 7.08 0 012.28.34.222.222 0 00-.076 0 5.768 5.768 0 00-3.561 1.908 5.796 5.796 0 00-1.444 3.78c-.1 2.468.908 4.73 3.077 6.916a43.984 43.984 0 005.767 4.824c.21.129.404.27.586.405z" fill="#FEC633"/><path opacity=".4" d="M44.4 21.393c-.375.259-.727.494-1.067.705a.41.41 0 01-.2.06.433.433 0 01-.204-.06c-.622-.4-1.278-.852-2.07-1.416a44.048 44.048 0 01-5.772-4.824c-2.168-2.185-3.17-4.447-3.07-6.915a5.79 5.79 0 011.44-3.78 5.763 5.763 0 013.558-1.908l.293-.035h.458a7.057 7.057 0 012.28.347h-.077a5.774 5.774 0 00-3.558 1.912 5.802 5.802 0 00-1.44 3.781c-.1 2.468.902 4.7 3.07 6.916a44.032 44.032 0 005.773 4.818l.586.4z" fill="#fff"/><path d="M53.683 8.955c.082 2.456-.938 4.7-3.1 6.88a44.658 44.658 0 01-5.79 4.8l-1.02.717a14.056 14.056 0 00-.586-.417 43.984 43.984 0 01-5.767-4.824c-2.169-2.186-3.177-4.448-3.077-6.916a5.796 5.796 0 011.444-3.78 5.768 5.768 0 013.561-1.907.222.222 0 01.076 0c.2.064.399.135.586.217a8.036 8.036 0 012.526 1.863c.397-.402.82-.777 1.266-1.122a6.105 6.105 0 011.26-.74 7.32 7.32 0 012.854-.547c.176 0 .328 0 .48.03h.288c.4.054.793.153 1.172.293a5.786 5.786 0 012.773 2.12 5.81 5.81 0 011.054 3.333z" fill="#FEC633"/><path d="M49.88 3.525a5.58 5.58 0 00-1.173-.293h-.287c-.152 0-.305 0-.48-.03a7.321 7.321 0 00-2.878.523c-.452.193-.879.44-1.272.735-.446.346-.869.72-1.266 1.122a8.036 8.036 0 00-2.526-1.863 7.08 7.08 0 00-2.866-.558 3.971 3.971 0 00-.456 0 5.774 5.774 0 00-3.855 1.94 5.802 5.802 0 00-1.443 3.783c-.1 2.462.908 4.7 3.076 6.91a43.132 43.132 0 005.767 4.824 35.205 35.205 0 002.075 1.416.374.374 0 00.404 0c.34-.212.686-.447 1.061-.7l1.02-.704a44.664 44.664 0 005.79-4.8c2.163-2.175 3.182-4.425 3.1-6.881a5.81 5.81 0 00-1.048-3.308 5.786 5.786 0 00-2.744-2.116v0z" stroke="#FE9C47" stroke-width="4" stroke-miterlimit="10"/><path d="M42.026 21.352c-.416.176-.803.347-1.172.494a.443.443 0 01-.21 0 .433.433 0 01-.188-.094 49.57 49.57 0 01-1.759-1.763 43.825 43.825 0 01-4.776-5.811c-1.729-2.55-2.297-4.96-1.758-7.368a5.784 5.784 0 012.115-3.447 5.757 5.757 0 013.85-1.213h.294c.152 0 .305.036.457.06a7.15 7.15 0 012.174.763h-.093a5.763 5.763 0 00-3.852 1.216 5.79 5.79 0 00-2.114 3.45c-.587 2.402 0 4.811 1.758 7.362a43.832 43.832 0 004.776 5.81l.498.541z" fill="#FEC633"/><path opacity=".4" d="M44.4 21.393c-.375.259-.727.494-1.067.705a.41.41 0 01-.2.06.433.433 0 01-.204-.06c-.622-.4-1.278-.852-2.07-1.416a44.048 44.048 0 01-5.772-4.824c-2.168-2.185-3.17-4.447-3.07-6.915a5.79 5.79 0 011.44-3.78 5.763 5.763 0 013.558-1.908l.293-.035h.458a7.057 7.057 0 012.28.347h-.077a5.774 5.774 0 00-3.558 1.912 5.802 5.802 0 00-1.44 3.781c-.1 2.468.902 4.7 3.07 6.916a44.032 44.032 0 005.773 4.818l.586.4z" fill="#fff"/><path d="M53.683 8.955c.082 2.456-.938 4.7-3.1 6.88a44.658 44.658 0 01-5.79 4.8l-1.02.717a14.056 14.056 0 00-.586-.417 43.984 43.984 0 01-5.767-4.824c-2.169-2.186-3.177-4.448-3.077-6.916a5.796 5.796 0 011.444-3.78 5.768 5.768 0 013.561-1.907.222.222 0 01.076 0c.2.064.399.135.586.217a8.036 8.036 0 012.526 1.863c.397-.402.82-.777 1.266-1.122a6.105 6.105 0 011.26-.74 7.32 7.32 0 012.854-.547c.176 0 .328 0 .48.03h.288c.4.054.793.153 1.172.293a5.786 5.786 0 012.773 2.12 5.81 5.81 0 011.054 3.333z" fill="#FEC633"/><path d="M49.88 3.525a5.58 5.58 0 00-1.173-.293h-.287c-.152 0-.305 0-.48-.03a7.321 7.321 0 00-2.878.523c-.452.193-.879.44-1.272.735-.446.346-.869.72-1.266 1.122a8.036 8.036 0 00-2.526-1.863 7.08 7.08 0 00-2.866-.558 3.971 3.971 0 00-.456 0 5.774 5.774 0 00-3.855 1.94 5.802 5.802 0 00-1.443 3.783c-.1 2.462.908 4.7 3.076 6.91a43.132 43.132 0 005.767 4.824 35.205 35.205 0 002.075 1.416.374.374 0 00.404 0c.34-.212.686-.447 1.061-.7l1.02-.704a44.664 44.664 0 005.79-4.8c2.163-2.175 3.182-4.425 3.1-6.881a5.81 5.81 0 00-1.048-3.308 5.786 5.786 0 00-2.744-2.116v0z" stroke="#FE9C47" stroke-width="5" stroke-miterlimit="10"/><path d="M36.722 2.35a7.6 7.6 0 012.345.376c.219.066.434.145.644.235a8.745 8.745 0 012.76 2.033c.431-.44.893-.849 1.384-1.222a6.782 6.782 0 011.383-.805 7.964 7.964 0 013-.587h.118c.187 0 .351 0 .521.029.065 0 .317.035.317.035.436.06.865.168 1.277.323A6.296 6.296 0 0153.48 5.07a6.321 6.321 0 011.147 3.615c.088 2.68-1.02 5.136-3.381 7.51a48.126 48.126 0 01-6.324 5.235l-1.107.77c-.41.275-.786.534-1.172.763a.405.405 0 01-.211.065.427.427 0 01-.223-.065 55.784 55.784 0 01-2.262-1.545 47.762 47.762 0 01-6.295-5.288c-2.344-2.386-3.457-4.854-3.352-7.545a6.325 6.325 0 011.572-4.126 6.295 6.295 0 013.884-2.084h.323a4.63 4.63 0 01.498-.03h.117l.03.006zm-.029-2.356h-.117c-.211 0-.434 0-.674.035-.076 0-.211 0-.44.042a8.65 8.65 0 00-5.329 2.844 8.691 8.691 0 00-2.178 5.646c-.117 3.32 1.237 6.434 4.038 9.254a50.4 50.4 0 006.622 5.523c.897.64 1.647 1.175 2.345 1.61l.058.041.065.035c.404.225.856.348 1.318.359h.053c.474-.003.94-.126 1.354-.358l.053-.03.052-.035a69.364 69.364 0 002.385-1.61 50.515 50.515 0 006.617-5.488c2.813-2.82 4.185-5.934 4.073-9.248v-.041a8.685 8.685 0 00-2.161-5.61A8.644 8.644 0 0049.544.112h-.035l-.44-.047-.62-.036h-.194c-1.337.003-2.66.266-3.897.776a8.785 8.785 0 00-1.864 1.07 8.784 8.784 0 00-1.852-1.07 10.027 10.027 0 00-3.927-.8l-.023-.01z" fill="#fff"/></g><defs><clipPath id="clip0"><path fill="#fff" d="M0 0h57v62H0z"/></clipPath></defs></svg>