<svg width="234" height="130" viewBox="0 0 234 130" fill="none" xmlns="http://www.w3.org/2000/svg"><path d="M18.77 120.45h-.4L8.11 89.42H.27l13.88 39.43h8.82l13.9-39.43h-7.86l-10.24 31.03zM60.78 102.47a11.812 11.812 0 00-4.31-2.7 15.26 15.26 0 00-5.17-.88 13.76 13.76 0 00-7.37 1.94 13.076 13.076 0 00-4.88 5.39 19.47 19.47 0 000 16.07 12.467 12.467 0 005 5.28 15.18 15.18 0 007.67 1.85c2.088.036 4.164-.32 6.12-1.05a11.408 11.408 0 004.4-3 10.143 10.143 0 002.34-4.5l-6.51-.73c-.28.8-.75 1.521-1.37 2.1a5.89 5.89 0 01-2.13 1.28 8.243 8.243 0 01-2.76.43 7.806 7.806 0 01-4-1 6.647 6.647 0 01-2.64-2.81 9.54 9.54 0 01-.93-4.24h20.59v-2.14a18.768 18.768 0 00-1.08-6.71 12.77 12.77 0 00-2.97-4.58zm-16.53 8.8c.05-1.126.35-2.226.88-3.22a7.31 7.31 0 012.51-2.7 6.903 6.903 0 013.76-1 6.643 6.643 0 013.51.91 6.229 6.229 0 012.36 2.47 7.72 7.72 0 01.87 3.57l-13.89-.03zM91.87 100.2a10.57 10.57 0 00-5.34-1.31 9.89 9.89 0 00-5.55 1.47 8.398 8.398 0 00-3.27 3.94h-.34v-5H70.7v29.57h7v-17.35c-.035-1.26.24-2.51.8-3.64a5.658 5.658 0 012.22-2.3 6.489 6.489 0 013.24-.8 5.426 5.426 0 014.23 1.68 6.65 6.65 0 011.52 4.64v17.75h7V110a13 13 0 00-1.24-6 9.002 9.002 0 00-3.6-3.8zM117.05 123.28a6.438 6.438 0 01-1.2.1 4.41 4.41 0 01-1.58-.27 2.247 2.247 0 01-1.15-1 4.318 4.318 0 01-.43-2.15v-15.29h5.83v-5.39h-5.83V92.2h-7v7.08h-4.2v5.39h4.2v16.44a8.152 8.152 0 001.2 4.62 7.218 7.218 0 003.32 2.72c1.499.599 3.108.872 4.72.8a14.019 14.019 0 002.51-.27c.69-.15 1.22-.3 1.59-.42l-1.17-5.45c-.17.05-.45.11-.81.17zM143.2 116.41a6.853 6.853 0 01-.94 3.74 6.06 6.06 0 01-2.37 2.25 6.431 6.431 0 01-3 .75 5.25 5.25 0 01-4-1.66 6.27 6.27 0 01-1.54-4.46V99.28h-7v18.82a13.385 13.385 0 001.25 6 9.006 9.006 0 003.48 3.79 9.932 9.932 0 005.13 1.3 9.63 9.63 0 005.61-1.58 8.888 8.888 0 003.28-4.06h.31v5.26h6.76V99.28h-7l.03 17.13zM171.69 98.86a7.64 7.64 0 00-4.52 1.39 7.43 7.43 0 00-2.78 4h-.31v-4.93h-6.75v29.57h7v-17.43a6.37 6.37 0 01.87-3.33 6.155 6.155 0 012.38-2.26 7.104 7.104 0 013.41-.82c.616 0 1.231.043 1.84.13.475.044.944.138 1.4.28v-6.41a8.149 8.149 0 00-1.2-.15c-.53-.03-.96-.04-1.34-.04zM199.8 102.47a11.813 11.813 0 00-4.31-2.7 15.262 15.262 0 00-5.17-.88 13.76 13.76 0 00-7.37 1.94 13.082 13.082 0 00-4.88 5.39 19.465 19.465 0 000 16.07 12.45 12.45 0 005 5.28 15.22 15.22 0 007.68 1.85 16.722 16.722 0 006.12-1.05 11.406 11.406 0 004.4-3 10.227 10.227 0 002.33-4.5l-6.5-.73a5.376 5.376 0 01-1.37 2.1 5.89 5.89 0 01-2.13 1.28 8.269 8.269 0 01-2.76.43 7.807 7.807 0 01-4-1 6.647 6.647 0 01-2.64-2.81 9.538 9.538 0 01-.94-4.24h20.59v-2.14a19.007 19.007 0 00-1.07-6.71 12.769 12.769 0 00-2.98-4.58zm-16.54 8.8a7.686 7.686 0 01.89-3.22 7.303 7.303 0 012.51-2.7 6.903 6.903 0 013.76-1 6.642 6.642 0 013.51.91 6.298 6.298 0 012.36 2.47 7.582 7.582 0 01.86 3.57l-13.89-.03zM231.66 114.85a12.872 12.872 0 00-6.25-2.87l-5-1.07a8.046 8.046 0 01-3.23-1.33 2.578 2.578 0 01-.95-2.1 2.787 2.787 0 011.45-2.45 6.724 6.724 0 013.65-.94 6.447 6.447 0 012.74.52c.692.311 1.302.78 1.78 1.37.428.535.744 1.151.93 1.81l6.35-.7a9.299 9.299 0 00-3.7-6c-2-1.48-4.73-2.22-8.19-2.22A16.33 16.33 0 00215 100a9.812 9.812 0 00-4.22 3.12 7.63 7.63 0 00-1.49 4.74 7.278 7.278 0 002 5.34 11.92 11.92 0 006.3 3l5 1.06a6.84 6.84 0 013 1.27 2.638 2.638 0 011 2.1 3.007 3.007 0 01-1.52 2.52 7.003 7.003 0 01-4 1 6.837 6.837 0 01-3.91-1 4.798 4.798 0 01-2-3l-6.8.65a9.106 9.106 0 004 6.36 15.135 15.135 0 008.74 2.28c2.237.041 4.46-.364 6.54-1.19a10.545 10.545 0 004.46-3.32 8.105 8.105 0 001.63-4.92 6.904 6.904 0 00-2.07-5.16z" fill="#181818"/><path d="M69 61.19H43v-60h26.24c7.393 0 13.753 1.197 19.08 3.59a27.69 27.69 0 0112.31 10.3 32.114 32.114 0 010 32.17 27.65 27.65 0 01-12.37 10.34c-5.4 2.4-11.82 3.6-19.26 3.6zM58.49 50.32h9.86a29.598 29.598 0 0011.6-2 14.35 14.35 0 007.1-6.24c1.587-2.82 2.38-6.487 2.38-11A21.89 21.89 0 0087 20.27a14.26 14.26 0 00-7.08-6.22 29.841 29.841 0 00-11.58-2h-9.9l.05 38.27z" fill="#37C793"/><path d="M114.43 60.27v-9l21-19.41c1.78-1.727 3.28-3.28 4.5-4.66a18.006 18.006 0 002.78-4.07 9.994 9.994 0 001-4.33 8.334 8.334 0 00-1.18-4.47 7.927 7.927 0 00-3.22-2.9 10.233 10.233 0 00-4.63-1 9.739 9.739 0 00-4.72 1.09 7.503 7.503 0 00-3.1 3.14 10.145 10.145 0 00-1.1 4.86h-11.9a18.823 18.823 0 012.61-10 17.437 17.437 0 017.34-6.58A24.1 24.1 0 01134.67.61a25.43 25.43 0 0111 2.23A17.65 17.65 0 01153 9a15.995 15.995 0 012.61 9 17.541 17.541 0 01-1.3 6.59 27.922 27.922 0 01-4.65 7.2 106.196 106.196 0 01-9.4 9.47l-8.6 8.43v.4h24.73v10.18h-41.96zM191.06.89v59.69h-12.45V12.86h-.35l-13.48 8.57V10.24L179.36.89h11.7z" fill="#181818"/></svg>