<svg width="62" height="61" viewBox="0 0 62 61" fill="none" xmlns="http://www.w3.org/2000/svg"><g clip-path="url(#clip0)"><path d="M51.286 20.532v-.124a1.82 1.82 0 00-.174-.348l-1.85-3.918-1.837 1.43-3.948-2.014-.236-.1-9.634-3.942-.298-.137-8.12-4.328a3.223 3.223 0 00-4.419 1.48l-3.637 7.698c-.15.31-.246.642-.286.983l-.869 7.188a3.236 3.236 0 01-1.366 2.263l-1.676 1.145c-.406.273-.742.64-.98 1.07L7.424 36.91c-.169.303-.29.63-.36.97l-.894 4.601a3.099 3.099 0 01-.633 1.356h-2.42l1.44 3.097a3.186 3.186 0 001.973 2.387l6.332 2.363c.18.07.354.154.521.249l8.964 5.298c.184.11.38.203.583.273l6.208 2.164c.274.095.533.23.77.398l.533.36a3.2 3.2 0 004.743-1.243l3.464-7.312c.143-.307.24-.634.285-.97l.894-7.2a3.238 3.238 0 011.378-2.264l1.676-1.144c.404-.278.74-.644.98-1.07l4.532-8.034c.163-.304.28-.631.348-.97l.894-4.601c.107-.542.35-1.047.707-1.468l.36-.435a3.16 3.16 0 00.584-3.184z" fill="#868591"/><path d="M32.59 54.297l3.45-7.313c.151-.304.248-.632.286-.97l.906-7.2a3.212 3.212 0 011.366-2.264l1.676-1.144c.407-.274.743-.64.98-1.07l4.52-8.033c.169-.303.29-.63.36-.97l.881-4.602c.107-.541.35-1.047.708-1.467l.372-.436a3.224 3.224 0 00-1.241-5.049v0l-.199-.1-5.847-2.996-.236-.1-9.597-3.93-.285-.136-8.132-4.328a3.224 3.224 0 00-4.42 1.467l-3.637 7.71a2.911 2.911 0 00-.286.97l-.894 7.201a3.299 3.299 0 01-1.378 2.264l-1.676 1.144c-.407.274-.743.64-.98 1.07l-4.482 8.033c-.165.304-.283.631-.348.97l-.894 4.602a3.298 3.298 0 01-.708 1.467l-.223.274a3.223 3.223 0 001.328 5.111l6.332 2.35c.175.07.346.154.509.25l8.902 5.297c.185.109.38.2.583.274l6.207 2.164c.278.097.54.23.783.398l.521.373a3.227 3.227 0 004.792-1.281v0z" fill="#CCC" stroke="#EDEDED" stroke-width="2.91" stroke-miterlimit="10"/><path opacity=".4" d="M8.715 32.409s2.607-6.566 3.625-7.076c1.018-.51 3.278-2.027 3.452-3.545.174-1.517.757-7.076 1.428-8.705.67-1.63 2.942-7.686 4.208-7.885 1.266-.199 7.958 3.16 8.504 3.582.547.423-6.207-1.928-7.722-.622a11.71 11.71 0 00-2.868 5.845c-.186 1.356-.509 7.462-1.65 9.825-1.143 2.363-3.502 1.89-4.594 3.072-1.093 1.181-4.383 5.509-4.383 5.509z" fill="#fff"/><path d="M26.22 35.331a4.503 4.503 0 00-2.383-2.487 4.24 4.24 0 00-5.724 2.015 4.073 4.073 0 00.956 4.763c.37.342.788.627 1.242.846a4.178 4.178 0 005.76-1.978 4.096 4.096 0 00.15-3.159zM34.774 19.338l-.335.747-6.617 12.784a.373.373 0 01-.497.187l-6.381-2.91a.386.386 0 01-.186-.498l5.264-13.406.335-.746a.36.36 0 01.472-.175l7.771 3.545a.36.36 0 01.174.472z" fill="#B3B3B3"/><g opacity=".6" fill="#686675"><path opacity=".6" d="M26.22 35.331a5.428 5.428 0 00-1.241-.808 4.229 4.229 0 00-5.711 2.015 4.123 4.123 0 00-.199 3.084c.37.342.788.627 1.242.846a4.178 4.178 0 005.76-1.978 4.096 4.096 0 00.15-3.159zM34.489 19.985v.1L27.87 32.869a.372.372 0 01-.496.187l-5.19-2.363 4.966-12.76.336-.746a.36.36 0 01.447-.187l6.555 2.985z"/></g><path d="M57.593 16.826H35.916a2.332 2.332 0 00-2.321 2.338v13.42a2.34 2.34 0 002.321 2.337h21.677a2.332 2.332 0 002.334-2.338V19.164a2.34 2.34 0 00-2.334-2.338zm-8.865 9.502v1.43a1.907 1.907 0 01-1.17 1.769 1.897 1.897 0 01-1.454 0 1.887 1.887 0 01-1.162-1.757v-1.355a2.614 2.614 0 01-.757-1.853 2.629 2.629 0 01.945-2.011 2.62 2.62 0 012.146-.564 2.617 2.617 0 012.038 3.278c-.11.395-.31.759-.586 1.063z" fill="#FEC633"/><path d="M49.362 24.04a2.641 2.641 0 01-.634 2.288v1.43a1.907 1.907 0 01-1.17 1.769 1.897 1.897 0 01-1.454 0 1.887 1.887 0 01-1.162-1.757v-1.355a2.614 2.614 0 01-.757-1.853 2.629 2.629 0 01.945-2.011 2.62 2.62 0 012.146-.564 2.618 2.618 0 012.086 2.052zM37.754 15.993v.87h4.022v-.87h-4.022zm14.066 0v.87h4.022v-.87H51.82z" fill="#FEC633"/><path d="M37.754 15.073v1.753h4.022v-1.753h-4.022zm14.066 0v1.753h4.022v-1.753H51.82z" fill="#1D1D1B"/><path d="M46.792 6.765c-1.317 0-2.58.524-3.512 1.457a4.979 4.979 0 00-1.454 3.518v5.037h10.043V11.74a5.04 5.04 0 00-1.512-3.54 5.023 5.023 0 00-3.565-1.435v0zm3.29 8.308h-6.555V11.79a3.274 3.274 0 01.96-2.305 3.262 3.262 0 012.305-.954 3.273 3.273 0 013.035 2.016c.167.397.253.824.255 1.255v3.27z" fill="#fff" stroke="#fff" stroke-width=".55" stroke-miterlimit="10"/><path d="M35.916 37.01a4.416 4.416 0 01-3.117-1.3 4.432 4.432 0 01-1.29-3.127V19.164a4.419 4.419 0 011.202-3.037 4.404 4.404 0 012.957-1.378v-2.96c0-2.968 1.177-5.815 3.273-7.914a11.164 11.164 0 0115.801 0 11.203 11.203 0 013.273 7.915v2.96a4.417 4.417 0 012.906 1.405 4.431 4.431 0 011.178 3.01v13.418a4.431 4.431 0 01-1.29 3.126 4.416 4.416 0 01-3.117 1.301H35.916zm0-19.898a1.997 1.997 0 00-1.986 2.003v13.418a1.991 1.991 0 001.986 1.99h21.677a1.985 1.985 0 001.986-1.99V19.164a2.004 2.004 0 00-1.986-2.002h-2.098V11.79a8.713 8.713 0 00-2.546-6.156 8.683 8.683 0 00-12.29 0 8.713 8.713 0 00-2.545 6.156v5.372l-2.198-.05z" fill="#fff"/><path d="M55.842 11.79v5.447H51.82v-5.422a5.042 5.042 0 00-1.495-3.522 5.024 5.024 0 00-3.533-1.453c-1.317 0-2.58.524-3.512 1.457a4.979 4.979 0 00-1.454 3.518v5.422h-4.023v-5.422c0-2.402.953-4.705 2.648-6.402a9.03 9.03 0 016.39-2.652 9.043 9.043 0 016.355 2.66 9.074 9.074 0 012.646 6.369z" fill="#CCC"/><path opacity=".4" d="M38.946 14.165a.472.472 0 01-.472-.473v-1.691a8.317 8.317 0 011.61-4.953A8.293 8.293 0 0144.32 4.03a.471.471 0 01.553.664.472.472 0 01-.267.232 7.35 7.35 0 00-3.77 2.675 7.37 7.37 0 00-1.432 4.401v1.691a.473.473 0 01-.46.473zM33.173 35.419l13.581-1.58V17.995l-13.581-.783v18.207z" fill="#fff"/><path d="M48.728 26.328v1.43a1.907 1.907 0 01-1.17 1.769c-.23.096-.478.146-.729.146a1.428 1.428 0 01-.323 0 1.874 1.874 0 001.552-1.865v-1.43a2.6 2.6 0 00.633-2.289 2.613 2.613 0 00-2.086-2.064h-.148a2.6 2.6 0 01.819 0 2.617 2.617 0 012.086 2.064 2.641 2.641 0 01-.634 2.239z" fill="#878787"/><path d="M48.058 26.328v1.43a1.88 1.88 0 01-1.552 1.865 1.861 1.861 0 01-1.564-1.865v-1.356a2.612 2.612 0 01-.757-1.853 2.615 2.615 0 012.271-2.587h.15a2.605 2.605 0 012.085 2.065 2.603 2.603 0 01-.633 2.3z" fill="#686675"/></g><defs><clipPath id="clip0"><path fill="#fff" d="M0 0h62v61H0z"/></clipPath></defs></svg>