<svg width="54" height="54" viewBox="0 0 54 54" fill="none" xmlns="http://www.w3.org/2000/svg"><g clip-path="url(#clip0)"><path d="M43.908 5.97H4.438a4.488 4.488 0 00-1.698.33 4.434 4.434 0 00-1.44.944c-.412.406-.739.887-.962 1.417A4.304 4.304 0 000 10.33v35.241a4.337 4.337 0 001.303 3.085 4.473 4.473 0 003.135 1.277h39.47c1.175 0 2.303-.46 3.135-1.277a4.337 4.337 0 001.303-3.085v-35.24c0-.574-.115-1.142-.338-1.671a4.358 4.358 0 00-.963-1.417 4.435 4.435 0 00-1.44-.944 4.489 4.489 0 00-1.697-.33z" fill="#DFDFDF"/><path d="M4.71 10.6h35.876c.401 0 .799.078 1.17.23.37.15.706.373.99.652a3 3 0 01.66.978c.153.365.23.757.23 1.152v28.68c0 .395-.077.786-.23 1.152a3 3 0 01-.66.977c-.284.28-.62.502-.99.653a3.09 3.09 0 01-1.17.23H4.71V10.6z" fill="#686675"/><path d="M4.71 49.934h6.644v2.484a1.541 1.541 0 01-.463 1.117A1.58 1.58 0 019.747 54h-3.44a1.61 1.61 0 01-1.134-.465 1.57 1.57 0 01-.472-1.117v-2.484h.01zM36.992 49.934h6.653v2.484c-.001.42-.17.821-.472 1.117a1.573 1.573 0 01-1.135.465h-3.44a1.593 1.593 0 01-1.606-1.582v-2.484z" fill="#B3B3B3"/><path d="M30.285 29.449c0 2.753-5.962 4.88-8.767 4.737a5.48 5.48 0 01-3.575-1.655 5.32 5.32 0 01-1.498-3.6 4.675 4.675 0 011.491-3.462 4.777 4.777 0 011.658-1.007 4.85 4.85 0 011.924-.268c2.805.143 8.767 2.493 8.767 5.255z" fill="#0288D8"/><path opacity=".15" d="M9.13 52.418v-2.484h2.214v2.484a1.524 1.524 0 01-.471 1.117c-.301.297-.71.464-1.135.465H7.524c.425-.002.832-.17 1.133-.466.3-.296.47-.697.473-1.116zM41.421 52.418v-2.484h2.215v2.484c-.003.419-.173.82-.474 1.116-.3.296-.707.464-1.133.466h-2.214c.425-.002.832-.17 1.133-.466.3-.296.47-.697.473-1.116z" fill="#686675"/><path d="M43.908 5.97H4.438a4.488 4.488 0 00-1.698.33 4.434 4.434 0 00-1.44.944c-.412.406-.739.887-.962 1.417A4.304 4.304 0 000 10.33v35.241a4.337 4.337 0 001.303 3.085 4.473 4.473 0 003.135 1.277h39.47" fill="#DFDFDF"/><path d="M40.586 45.304H4.71V10.6h35.876" fill="#686675"/><path d="M4.71 49.934h6.644v2.484a1.541 1.541 0 01-.463 1.117A1.58 1.58 0 019.747 54h-3.44a1.61 1.61 0 01-1.134-.465 1.57 1.57 0 01-.472-1.117v-2.484h.01zM36.992 49.934h6.653v2.484c-.001.42-.17.821-.472 1.117a1.573 1.573 0 01-1.135.465h-3.44a1.593 1.593 0 01-1.606-1.582v-2.484z" fill="#B3B3B3"/><path opacity=".15" d="M9.13 52.418v-2.484h2.214v2.484a1.524 1.524 0 01-.471 1.117c-.301.297-.71.464-1.135.465H7.524c.425-.002.832-.17 1.133-.466.3-.296.47-.697.473-1.116zM41.421 52.418v-2.484h2.215v2.484c-.003.419-.173.82-.474 1.116-.3.296-.707.464-1.133.466h-2.214c.425-.002.832-.17 1.133-.466.3-.296.47-.697.473-1.116zM2.55 45.572v-35.24A4.346 4.346 0 013.856 7.25a4.482 4.482 0 013.132-1.28h-2.55a4.488 4.488 0 00-1.698.33 4.434 4.434 0 00-1.44.944c-.412.406-.739.887-.962 1.417A4.304 4.304 0 000 10.33v35.241c0 .573.115 1.141.338 1.671.223.53.55 1.011.962 1.416.413.405.902.726 1.44.945a4.49 4.49 0 001.698.33h2.55a4.483 4.483 0 01-3.132-1.28 4.346 4.346 0 01-1.306-3.082z" fill="#686675"/><path d="M34.596 45.304H4.71V10.6h29.886" fill="#CCC"/><path d="M6.652 18.706H4.166c-.33 0-.646.13-.88.359-.233.23-.364.54-.364.865v2.744a1.208 1.208 0 00.365.866 1.244 1.244 0 00.879.359h2.486a1.26 1.26 0 00.88-.359 1.223 1.223 0 00.364-.866V19.93c0-.324-.131-.636-.364-.865a1.253 1.253 0 00-.88-.359zM6.652 32.005H4.166a1.252 1.252 0 00-.879.353 1.215 1.215 0 00-.365.863v2.752c0 .325.131.636.365.866.233.23.549.359.879.359h2.486c.33 0 .646-.13.88-.359.233-.23.364-.541.364-.866v-2.752a1.2 1.2 0 00-.365-.863 1.236 1.236 0 00-.879-.353z" fill="#686675"/><path d="M14.984 18.706c-.8 0-1.566.313-2.13.87a2.944 2.944 0 00-.883 2.097v12.513c0 .787.317 1.541.882 2.098a3.037 3.037 0 002.13.869" fill="#DFDFDF"/><path d="M13.187 22.29H11.68c-.5 0-.98.196-1.335.544a1.845 1.845 0 00-.552 1.315v7.606c0 .493.198.966.553 1.314.354.349.834.545 1.334.545h1.507" fill="#686675"/><path opacity=".2" d="M14.013 23.782a1.4 1.4 0 00-.982.401c-.26.256-.407.604-.407.967v5.604c0 .362.146.71.407.967.26.256.614.4.982.4" fill="#686675"/><path opacity=".15" d="M2.55 45.572v-35.24A4.346 4.346 0 013.856 7.25a4.482 4.482 0 013.132-1.28h-2.55a4.488 4.488 0 00-1.698.33 4.434 4.434 0 00-1.44.944c-.412.406-.739.887-.962 1.417A4.304 4.304 0 000 10.33v35.241c0 .573.115 1.141.338 1.671.223.53.55 1.011.962 1.416.413.405.902.726 1.44.945a4.49 4.49 0 001.698.33h2.55a4.483 4.483 0 01-3.132-1.28 4.346 4.346 0 01-1.306-3.082z" fill="#686675"/><path d="M18.66 6.319l-3.74 20.717 21.782 6.569 11.844-1.359 3.73-20.556" fill="#FFE7B0"/><path d="M47.348 5.148a33.441 33.441 0 00-2.333-.894 53.352 53.352 0 00-6.534-1.787 46.183 46.183 0 018.867 2.681zM37.691 2.368l.318.063-.318-.063zM50.814 7.078a19.139 19.139 0 00-3.467-1.93c3.467 1.51 5.528 3.217 5.264 4.683V9.77c.164-.787-.426-1.707-1.797-2.69zM46.013 12.512l-.408 2.28a18.74 18.74 0 003.912-.6c1.633-.455 2.514-1.117 2.668-1.975l.417-2.305c-.263 1.492-2.804 2.386-6.589 2.6z" fill="#FEC631"/><path d="M34.968 11.735c-9.257-1.636-16.336-5.094-15.882-7.722l-.417 2.306c-.155.894.435 1.787 1.815 2.761a22.5 22.5 0 005.799 2.798c2.71.92 5.49 1.622 8.313 2.1 2.812.521 5.662.82 8.522.894.908 0 1.734 0 2.505-.054l.418-2.279a48.973 48.973 0 01-11.073-.804zM46.957 28.332c1.634-.456 2.505-1.117 2.66-1.976l.571-3.137a19.72 19.72 0 01-6.353 1.082L43 28.93a18.825 18.825 0 003.957-.6z" fill="#FEC631"/><path d="M32.854 23.398a53.925 53.925 0 01-9.53-2.493 21.06 21.06 0 01-6.661-3.575v.143l-.545 2.985c-.154.894.436 1.787 1.815 2.77a23.254 23.254 0 005.8 2.798 55.07 55.07 0 008.304 2.1c2.815.521 5.668.82 8.531.894h2.505l.835-4.63H42.71c-3.31-.028-6.61-.36-9.856-.992zM45.669 35.42c1.633-.466 2.505-1.127 2.668-1.985l.563-3.128a19.726 19.726 0 01-6.308 1.072l-.844 4.63a18.72 18.72 0 003.92-.59z" fill="#FEC631"/><path d="M31.574 30.486a57.212 57.212 0 01-9.53-2.494 20.976 20.976 0 01-6.67-3.575l-.563 3.128c-.154.894.427 1.788 1.816 2.77a22.89 22.89 0 005.79 2.79 58.34 58.34 0 0016.835 2.967c.908 0 1.733 0 2.505-.045l.844-4.639h-1.207a57.313 57.313 0 01-9.82-.902zM48.237 21.235c1.634-.456 2.514-1.117 2.668-1.975l.563-3.128c-2.043.7-4.19 1.062-6.353 1.073l-.835 4.638a18.751 18.751 0 003.957-.608z" fill="#FEC631"/><path d="M34.142 16.32a58.33 58.33 0 01-9.529-2.494 21.374 21.374 0 01-6.67-3.575l-.563 3.128c-.154.894.436 1.788 1.815 2.762a22.496 22.496 0 005.8 2.797 58.17 58.17 0 0016.826 2.959h2.504l.844-4.63h-1.198a58.327 58.327 0 01-9.828-.947z" fill="#FEC631"/><path d="M35.722 2.02l.989.17-.99-.17zM38.009 2.467l.472.09-.472-.09zM36.702 2.18l.98.188-.98-.187zM47.339 5.228l-1.326 7.284c3.785-.24 6.353-1.144 6.59-2.6.235-1.457-1.798-3.173-5.264-4.684z" fill="#FE9C47"/><path d="M34.977 11.735c3.636.68 7.34.942 11.036.777l1.326-7.284a45.585 45.585 0 00-8.867-2.68L38 2.457l-.318-.063-.98-.214-.99-.161-.317-.054-.481-.071C26.446.67 19.485 1.546 19.068 4.013c-.472 2.636 6.643 6.095 15.91 7.722z" fill="#FE9C47"/><path opacity=".4" d="M50.814 7.078a19.139 19.139 0 00-3.467-1.93c3.467 1.51 5.528 3.217 5.264 4.683V9.77c.164-.787-.426-1.707-1.797-2.69zM46.013 12.512l-.408 2.28a18.74 18.74 0 003.912-.6c1.633-.455 2.514-1.117 2.668-1.975l.417-2.305c-.263 1.492-2.804 2.386-6.589 2.6zM46.957 28.332c1.634-.456 2.505-1.117 2.66-1.976l.571-3.137a19.72 19.72 0 01-6.353 1.082L43 28.93a18.825 18.825 0 003.957-.6zM45.669 35.42c1.633-.466 2.505-1.127 2.668-1.985l.563-3.128a19.726 19.726 0 01-6.308 1.072l-.844 4.63a18.72 18.72 0 003.92-.59zM48.237 21.235c1.634-.456 2.514-1.117 2.668-1.975l.563-3.128c-2.043.7-4.19 1.062-6.353 1.073l-.835 4.638a18.751 18.751 0 003.957-.608z" fill="#FE9C47"/><path opacity=".4" d="M47.339 5.228l-1.326 7.284c3.785-.24 6.353-1.144 6.59-2.6.235-1.457-1.798-3.173-5.264-4.684z" fill="#FE9C47"/><path opacity=".2" d="M16.545 30.754V25.15a1.34 1.34 0 00-.404-.97 1.382 1.382 0 00-.985-.398h-1.143a1.4 1.4 0 00-.982.401c-.26.256-.407.604-.407.967v5.604c0 .362.146.71.407.967.26.256.614.4.982.4h1.107a1.4 1.4 0 001.008-.385 1.358 1.358 0 00.417-.982z" fill="#686675"/><path d="M4.71 10.6h29.886a2.76 2.76 0 011.96.804c.521.512.815 1.206.818 1.93v29.244a2.714 2.714 0 01-.817 1.928 2.8 2.8 0 01-1.96.798H4.71V10.6z" fill="#CCC"/><path d="M6.652 18.706H4.166c-.33 0-.646.13-.88.359-.233.23-.364.54-.364.865v2.744a1.208 1.208 0 00.365.866 1.244 1.244 0 00.879.359h2.486a1.26 1.26 0 00.88-.359 1.223 1.223 0 00.364-.866V19.93c0-.324-.131-.636-.364-.865a1.253 1.253 0 00-.88-.359zM6.652 32.005H4.166a1.252 1.252 0 00-.879.353 1.215 1.215 0 00-.365.863v2.752c0 .325.131.636.365.866.233.23.549.359.879.359h2.486c.33 0 .646-.13.88-.359.233-.23.364-.541.364-.866v-2.752a1.2 1.2 0 00-.365-.863 1.236 1.236 0 00-.879-.353z" fill="#686675"/><path d="M19.313 18.706h-4.33c-.798 0-1.565.313-2.13.87a2.944 2.944 0 00-.882 2.097v12.513c0 .787.317 1.541.882 2.098a3.037 3.037 0 002.13.869h4.33c.8 0 1.566-.313 2.13-.87a2.945 2.945 0 00.883-2.097V21.673c0-.787-.317-1.541-.883-2.098a3.037 3.037 0 00-2.13-.869z" fill="#DFDFDF"/><path d="M15.066 31.755v-7.606c0-.492-.198-.963-.55-1.311a1.902 1.902 0 00-1.33-.548H11.68c-.5 0-.98.196-1.335.544a1.845 1.845 0 00-.552 1.315v7.606c0 .493.198.966.553 1.314.354.349.834.545 1.334.545h1.507c.499-.003.977-.2 1.329-.548.352-.348.55-.82.55-1.311z" fill="#686675"/><path d="M40.396 37.412h-1.162a59.543 59.543 0 01-17.244-3.039 24.044 24.044 0 01-6.162-2.976c-1.815-1.305-2.596-2.681-2.342-4.084l1.026-5.658 3.23-17.874c.754-4.13 9.839-4.308 17.39-3.209l.808.125 1.016.17.907.16.908.18a47.205 47.205 0 019.148 2.788c4.339 1.904 6.435 4.022 6.054 6.149l-4.275 23.532c-.254 1.403-1.48 2.422-3.63 3.03-1.382.364-2.8.58-4.23.644l-1.442.062zM16.263 27.161l-.108.599c0 .17.2.679 1.27 1.456a21.868 21.868 0 005.446 2.61 56.854 56.854 0 0016.417 2.887c.844 0 1.661 0 2.387-.045l.844-.053a17.522 17.522 0 002.805-.492c1.252-.357 1.651-.76 1.679-.894l4.265-23.523c0-.241-.617-1.546-4.474-3.226a43.573 43.573 0 00-8.595-2.619l-.907-.17-.908-.16-.89-.17-.77-.117c-9.53-1.385-14.159.188-14.304 1.02l-.408 2.305-3.74 20.619-.008-.027z" fill="#fff"/><path d="M4.71 10.6h29.886a2.76 2.76 0 011.96.804c.521.512.815 1.206.818 1.93v29.244a2.714 2.714 0 01-.817 1.928 2.8 2.8 0 01-1.96.798H4.71V10.6z" fill="#CCC"/><path d="M6.652 18.706H4.166c-.33 0-.646.13-.88.359-.233.23-.364.54-.364.865v2.744a1.208 1.208 0 00.365.866 1.244 1.244 0 00.879.359h2.486a1.26 1.26 0 00.88-.359 1.223 1.223 0 00.364-.866V19.93c0-.324-.131-.636-.364-.865a1.253 1.253 0 00-.88-.359zM6.652 32.005H4.166a1.252 1.252 0 00-.879.353 1.215 1.215 0 00-.365.863v2.752c0 .325.131.636.365.866.233.23.549.359.879.359h2.486c.33 0 .646-.13.88-.359.233-.23.364-.541.364-.866v-2.752a1.2 1.2 0 00-.365-.863 1.236 1.236 0 00-.879-.353z" fill="#686675"/><path d="M19.313 18.706h-4.33c-.798 0-1.565.313-2.13.87a2.944 2.944 0 00-.882 2.097v12.513c0 .787.317 1.541.882 2.098a3.037 3.037 0 002.13.869h4.33c.8 0 1.566-.313 2.13-.87a2.945 2.945 0 00.883-2.097V21.673c0-.787-.317-1.541-.883-2.098a3.037 3.037 0 00-2.13-.869z" fill="#DFDFDF"/><path d="M15.066 31.755v-7.606c0-.492-.198-.963-.55-1.311a1.902 1.902 0 00-1.33-.548H11.68c-.5 0-.98.196-1.335.544a1.845 1.845 0 00-.552 1.315v7.606c0 .493.198.966.553 1.314.354.349.834.545 1.334.545h1.507c.499-.003.977-.2 1.329-.548.352-.348.55-.82.55-1.311z" fill="#686675"/></g><defs><clipPath id="clip0"><path fill="#fff" d="M0 0h54v54H0z"/></clipPath></defs></svg>