<svg width="48" height="57" viewBox="0 0 48 57" fill="none" xmlns="http://www.w3.org/2000/svg"><g clip-path="url(#clip0)"><path d="M39.52 56.852a10.64 10.64 0 01-3.903-.703 12.224 12.224 0 00-4.457-.863 12.987 12.987 0 00-3.865.612c-1.034.329-2.112.5-3.197.507a10.01 10.01 0 01-3.26-.557 15.596 15.596 0 00-5.08-.904 13.246 13.246 0 00-5.001.988 8.577 8.577 0 01-3.204.66 6.298 6.298 0 01-4.772-2.068C1.5 53.092.913 51.13 1.118 48.955c-.034-1.576.19-3.058.418-4.491.048-.302.093-.602.139-.904.494-3.39.13-6.996-1.14-11.35-.741-2.53-.7-4.895.129-7.234a23.94 23.94 0 001.237-10.12c-.076-.869-.211-1.741-.354-2.66a33.407 33.407 0 01-.463-4.1 7.338 7.338 0 011.968-5.263A6.047 6.047 0 017.496.97a7.944 7.944 0 012.575.454c1.922.69 3.946 1.05 5.988 1.066a16.82 16.82 0 005.89-1.082 5.937 5.937 0 012.06-.37c.946.017 1.881.2 2.764.541a13.9 13.9 0 004.68.85 12.816 12.816 0 004.18-.715c1.417-.486 2.775-.554 3.978-.629l.636-.038c.139 0 .278-.015.414-.015 3.371 0 6.04 2.778 6.211 6.46.103 2.248-.22 4.383-.532 6.45l-.015.1c-.513 3.389-.144 7.029 1.157 11.47.724 2.469.692 4.749-.099 6.968-1.445 4.068-1.736 8.472-.89 13.465.25 1.482.218 2.926.19 4.324v.05c-.084 3.63-2.579 6.24-6.21 6.493-.325.027-.644.038-.953.038zM10.736 44.52c0 .408 0 .99.019 1.44.404 0 .923-.042 1.506-.08h23.417c.152 0 .304.016.456.023.292.015.57.03.826.03h.295v-2.363-31.845h-26.52v32.795z" fill="#DFDFDF"/><path d="M3.313 49.039c-.057-1.744.28-3.452.53-5.162.614-4.2-.036-8.278-1.212-12.285-.589-2.005-.61-3.906.092-5.89a26.018 26.018 0 001.354-11.044c-.19-2.22-.731-4.387-.803-6.639-.088-2.78 2.09-5.903 6.08-4.527 4.529 1.562 8.902 1.598 13.35-.036 1.14-.416 2.22-.217 3.33.19 3.42 1.223 6.89 1.33 10.32.142 1.33-.462 2.701-.462 4.04-.55 2.374-.16 4.18 1.804 4.289 4.37.095 2.064-.219 4.092-.525 6.119-.642 4.244.03 8.36 1.22 12.416.559 1.9.614 3.72-.06 5.616-1.69 4.75-1.825 9.621-.987 14.565.219 1.292.19 2.64.154 3.96-.055 2.498-1.683 4.18-4.168 4.356a8.861 8.861 0 01-3.897-.524c-3.23-1.26-6.483-1.33-9.773-.303a7.89 7.89 0 01-5.09-.028c-3.872-1.33-7.773-1.436-11.622.122-4.045 1.632-7.059-.96-6.622-4.868zm32.27-.969c.455.019.911.053 1.365.055 2.25.01 2.502-.245 2.502-2.51v-33.8c0-1.964-.325-2.28-2.318-2.28H10.858c-1.993 0-2.316.32-2.316 2.28v32.706c0 3.728.084 3.8 3.868 3.547l23.174.002z" fill="#CCC"/><path d="M40.38 10.79c0-2.09-.345-2.421-2.455-2.421H10.07c-2.113 0-2.457.338-2.457 2.42v34.676c0 3.863.086 4.026 3.836 3.78h25.174c.369.018.737.039 1.108.04 2.384 0 2.65-.26 2.66-2.659-.007-11.944-.01-23.89-.012-35.837z" fill="#686675"/><path d="M11.447 49.244h25.174c.369.02.737.04 1.108.042 2.28 0 2.622-.238 2.648-2.343l-3.61-3.61v-1.14c0-.634-.252-1.242-.7-1.69l-1.177-1.176a2.396 2.396 0 01-.691-1.688v-.76c0-.634-.252-1.243-.701-1.692l-1.275-1.275V23.787a8.778 8.778 0 10-17.554 0v13.925a5.633 5.633 0 01-1.65 3.99l-4.986 4.98a4.182 4.182 0 00-.395.467c.112 2.22.707 2.3 3.81 2.095z" fill="#FE9C47"/><g opacity=".15"><path opacity=".8" d="M45.376 26.133c-1.19-4.054-1.862-8.17-1.22-12.416.306-2.027.62-4.054.525-6.12-.118-2.555-1.915-4.52-4.288-4.37-1.33.09-2.702.09-4.041.552-3.23 1.115-6.498 1.086-9.719.059v49.968h.012c3.29-1.026 6.553-.95 9.773.302a8.861 8.861 0 003.897.524c2.485-.174 4.113-1.858 4.168-4.356.03-1.319.065-2.66-.154-3.96-.838-4.94-.7-9.813.986-14.565.675-1.901.62-3.718.061-5.618z" fill="#686675"/></g><path opacity=".9" d="M27.264 23.32v6.138a5.32 5.32 0 01-4.396 5.238 5.23 5.23 0 01-2.635-.2 5.32 5.32 0 01-3.61-5.038V23.32a5.321 5.321 0 0110.64 0h.001z" fill="#F29F33"/><path d="M20.14 18.313a5.32 5.32 0 00-3.512 5.005v6.14a5.32 5.32 0 003.511 5.005 5.32 5.32 0 003.51-5.005v-6.14a5.32 5.32 0 00-3.51-5.005z" fill="#FEC631"/><path d="M25.27 25.16H21.6a.365.365 0 010-.727h3.67a.365.365 0 010 .728zM21.384 32.51c-.591 0-1.184-.272-1.76-.812a.362.362 0 11.496-.53c.874.821 1.655.821 2.53 0a.363.363 0 11.495.53c-.576.54-1.168.812-1.761.812zM19.849 30.098a.57.57 0 01-.443-.19c-.342-.38-.21-1.166.055-2.515.143-.726.357-1.82.217-2.077-.293-.532-1.764-.34-2.428-.163a.363.363 0 01-.19-.701c.266-.072 2.608-.658 3.252.515.25.454.114 1.273-.14 2.565-.114.581-.299 1.52-.238 1.84 1.687-.113 2.489 0 2.521 0a.363.363 0 01-.108.719c-.019 0-.807-.114-2.45 0l-.048.007z" fill="#FE9C47"/><path d="M23.438 25.85a.589.589 0 100-1.178.589.589 0 000 1.178zM18.32 25.85a.589.589 0 100-1.178.589.589 0 000 1.178z" fill="#FE9C47"/><path d="M24.676 38.312v3.344c0 1.694-.395 3.365-1.155 4.879l-.443.887a4.67 4.67 0 01-.674.046h-4.096a3.23 3.23 0 01-3.23-3.23v-2.09a2.226 2.226 0 012.228-2.225 2.911 2.911 0 002.915-2.916v-2.51a5.23 5.23 0 002.635.2l.57.592a4.334 4.334 0 011.25 3.023z" fill="#FEC631"/><path d="M27.264 29.458v13.15a4.858 4.858 0 01-4.18 4.814l.443-.887a10.875 10.875 0 001.155-4.88v-3.343c0-1.13-.442-2.214-1.231-3.023l-.57-.593a5.32 5.32 0 004.383-5.238z" fill="#F29F33"/></g><defs><clipPath id="clip0"><path fill="#fff" transform="translate(0 .97)" d="M0 0h48v55.881H0z"/></clipPath></defs></svg>