<svg width="78" height="54" viewBox="0 0 78 54" fill="none" xmlns="http://www.w3.org/2000/svg"><g clip-path="url(#clip0)"><path d="M60.983 22.57l-2.2-.791c-.84-.281-1.768-.562-2.76-.856-2.404-1.391.178 3.103-.089 3.703-3.052 3.025-3.739-11.413-4.642-12.026a5.22 5.22 0 00-2.18-3.038 5.186 5.186 0 00-3.645-.792 25.349 25.349 0 00-4.566.804c-3.167.728-6.435 1.558-8.979.383A30.118 30.118 0 0027.56 8.95a1.456 1.456 0 00-.203.191c.076-.063.127-.14.203-.191-3.04-.409-6.041.09-6.817 3.702a13.536 13.536 0 00-.865 3.83c-.216 1.276-.47 2.821-.776 4.187-.521 2.323-1.195 4.277-2.123 4.417a1.038 1.038 0 01-.903-.396c-.077-.383.75-2.234.864-3.28.064-.626-.127-.945-.979-.422C-18.58 31.2 42.67 33.97 61.301 29.413c-17.41 2.374-50.63 1.072-50.427-3.945-.19 5.017 33.067 6.32 50.427 3.945 6.016-1.52 7.58-3.792-.318-6.843zm-50.096 2.553a.32.32 0 000 .154.32.32 0 010-.166v.012zm11.37-1.06c1.17-.178 1.933-3.305 2.543-6.382-.61 3.076-1.373 6.191-2.543 6.37v.013z" fill="#CCC"/><path opacity=".4" d="M61.25 29.349c-18.58 4.557-79.882 1.762-45.34-8.426.852-.523 1.043-.204.98.422-22.41 8.272 22.943 10.927 44.36 8.004z" fill="#fff"/><path opacity=".4" d="M16.94 25.021c.929-.127 1.616-2.08 2.137-4.417.305-1.366.56-2.872.776-4.187.1-1.312.392-2.602.865-3.83.776-3.613 3.815-4.11 6.817-3.702a4.612 4.612 0 00-1.54 2.72c-.724.586-1.462 12.089-3.738 12.433-1.323 1.009-4.757.996-5.317.983z" fill="#fff"/><path opacity=".4" d="M16.94 25.021c.929-.127 1.616-2.08 2.137-4.417.305-1.366.56-2.872.776-4.187.1-1.312.392-2.602.865-3.83.776-3.613 3.815-4.11 6.817-3.702a4.612 4.612 0 00-1.54 2.72c-.724.586-1.462 12.089-3.738 12.433-1.323 1.009-4.757.996-5.317.983z" fill="#fff"/><path d="M61.25 29.349c-18.58 4.557-79.882 1.762-45.34-8.426.852-.523 1.043-.204.98.422-22.41 8.272 22.943 10.927 44.36 8.004zM56.939 42.51l-.204-1.595-1.093-8.694-.725.128a117.835 117.835 0 01-36.069.255l-1.03 8.12-.127.931a4.328 4.328 0 00.649 2.988 6.025 6.025 0 003.93 2.374h.127l.674.077c2.314.204 5.163.383 8.292.523l.114-.115 1.4-1.404a4.78 4.78 0 013.395-1.417h.242a4.697 4.697 0 013.141 1.391l1.272 1.405c.526.564 1.252.899 2.022.931h.47c2.06-.114 5.355-.28 8.37-.548h.215a6.343 6.343 0 002.48-.754c.27-.134.527-.297.763-.485a4.445 4.445 0 001.691-4.11zm-26.39-1.761c-.448.329-.92.623-1.412.88a6.811 6.811 0 01-2.378.741h-.598a7.347 7.347 0 01-4.311-1.634.42.42 0 01-.178-.383.345.345 0 01.127-.268 8.806 8.806 0 012.327-1.276 5.729 5.729 0 011.679-.358c.122-.018.247-.018.369 0a7.512 7.512 0 014.375 1.672.38.38 0 01.152.32.359.359 0 01-.152.306zm19.573 0c-.448.345-.93.644-1.437.893a6.338 6.338 0 01-3.192.766 7.513 7.513 0 01-4.121-1.66.409.409 0 01-.14-.305.485.485 0 01.127-.32 7.882 7.882 0 014.02-1.66h.368a5.998 5.998 0 012.238.46 9.418 9.418 0 012.086 1.188.525.525 0 01.178.395.307.307 0 01-.127.243z" fill="#686675"/><path opacity=".4" d="M36.552 39.064v5.642h-.242a4.767 4.767 0 00-3.396 1.417l-1.399 1.405-.114.115c.14-.37 2.582-7.328 5.15-8.58z" fill="#fff"/><path d="M61.25 29.349c-21.43 2.923-66.782.268-44.36-8.004-.115 1.047-.942 2.898-.865 3.28a1.043 1.043 0 00.903.396c.56 0 3.993 0 5.316-.97 2.276-.345 3.014-11.847 3.739-12.434a4.613 4.613 0 011.539-2.72c1.477.228 2.935.565 4.362 1.01 2.544 1.174 5.812.344 8.98-.384a25.35 25.35 0 014.59-.791 5.186 5.186 0 013.645.792 5.22 5.22 0 012.18 3.038c.903.613 1.59 15.05 4.642 12.025.267-.6-2.314-5.106.09-3.702.991.294 1.92.575 2.76.855l2.2.792c7.91 3.09 6.346 5.362.28 6.817z" fill="#B3B3B3"/><path opacity=".4" d="M16.94 25.021c.929-.127 1.616-2.08 2.137-4.417.305-1.366.56-2.872.776-4.187.1-1.312.392-2.602.865-3.83.776-3.613 3.815-4.11 6.817-3.702a4.612 4.612 0 00-1.54 2.72c-.724.586-1.462 12.089-3.738 12.433-1.323 1.009-4.757.996-5.317.983z" fill="#fff"/><path opacity=".4" d="M61.25 29.349c-18.58 4.557-79.882 1.762-45.34-8.426.852-.523 1.043-.204.98.422-22.41 8.272 22.943 10.927 44.36 8.004z" fill="#fff"/><path d="M61.25 29.349c-18.58 4.557-79.882 1.762-45.34-8.426.852-.523 1.043-.204.98.422-22.41 8.272 22.943 10.927 44.36 8.004z" fill="#CCC"/><path opacity=".4" d="M31.388 47.643a2.843 2.843 0 01-2.022.778c-3.358-.153-6.36-.332-8.826-.561l-.674-.064h-.128a5.999 5.999 0 01-3.917-2.362 4.276 4.276 0 01-.648-3l.114-.932 1.183-9.255.7.127 1.716.256-1.03 8.119-.127.932a4.328 4.328 0 00.649 2.987 6.025 6.025 0 003.93 2.375h.127l.674.076c2.302.204 5.15.383 8.28.524z" fill="#686675"/><path opacity=".4" d="M31.388 47.643a2.843 2.843 0 01-2.022.778c-3.358-.153-6.36-.332-8.826-.561l-.674-.064h-.128a5.999 5.999 0 01-3.917-2.362 4.276 4.276 0 01-.648-3l.114-.932 1.183-9.255.7.127 1.716.256-1.03 8.119-.127.932a4.328 4.328 0 00.649 2.987 6.025 6.025 0 003.93 2.375h.127l.674.076c2.302.204 5.15.383 8.28.524z" fill="#686675"/><path d="M69.377 13.2a15.929 15.929 0 00-3.167-3.179 15.435 15.435 0 00-20.955 2.3 15.572 15.572 0 00-3.758 10.724 15.564 15.564 0 004.523 10.422 15.45 15.45 0 0010.383 4.54 15.442 15.442 0 0010.683-3.773 15.579 15.579 0 002.29-21.034zm-23.77 9.28a11.432 11.432 0 011.609-5.866 11.376 11.376 0 014.386-4.2 11.322 11.322 0 0111.67.569L47.502 28.8a11.443 11.443 0 01-1.895-6.32zm11.37 11.414a11.251 11.251 0 01-6.359-1.915l15.77-15.817a11.429 11.429 0 01.568 11.714 11.382 11.382 0 01-4.185 4.403 11.324 11.324 0 01-5.845 1.615h.051z" fill="#FE9C47"/><path d="M67.99 11.809a15.929 15.929 0 00-3.166-3.18 15.435 15.435 0 00-20.956 2.3 15.572 15.572 0 00-3.758 10.724 15.563 15.563 0 004.523 10.422 15.45 15.45 0 0010.383 4.54A15.442 15.442 0 0065.7 32.843a15.58 15.58 0 002.29-21.034zm-23.77 9.255a11.433 11.433 0 011.61-5.867 11.376 11.376 0 014.385-4.2 11.322 11.322 0 0111.671.569l-15.77 15.88a11.443 11.443 0 01-1.895-6.382zm11.37 11.413a11.251 11.251 0 01-6.358-1.915L65.066 14.77a11.428 11.428 0 01.605 11.76 11.381 11.381 0 01-4.206 4.419 11.324 11.324 0 01-5.874 1.604v-.076z" fill="#FEC633"/><path d="M55.59 5.566a15.376 15.376 0 019.234 3.064 57.785 57.785 0 014.553 4.57 15.573 15.573 0 011.426 16.243 15.502 15.502 0 01-5.703 6.25 15.422 15.422 0 01-8.123 2.311h-.61l.368 2.936.204 1.596a4.445 4.445 0 01-1.603 4.098c-.236.188-.492.35-.763.485-.766.42-1.61.676-2.48.753h-.216c-3.014.268-6.36.434-8.369.55h-.47a2.934 2.934 0 01-2.022-.933l-1.272-1.404a4.697 4.697 0 00-3.141-1.391h-.242a4.768 4.768 0 00-3.396 1.417l-1.399 1.404-.114.115a2.843 2.843 0 01-2.022.778c-3.358-.153-6.36-.331-8.827-.561l-.674-.064h-.127a6 6 0 01-3.917-2.362 4.277 4.277 0 01-.649-3l.115-.932 1.182-9.255.7.128 1.717.255c5.693.843 11.44 1.27 17.195 1.277 3.23 0 6.651-.154 9.97-.434-.228-.23-.419-.486-.635-.728a18.207 18.207 0 01-1.4-1.404c-2.657.102-5.392.166-8.139.166-21.926 0-43.775-3.511-19.916-10.545a1.41 1.41 0 01.661-.255c.293 0 .356.268.318.676-.114 1.047-.941 2.898-.865 3.281a1.159 1.159 0 00.801.409h.102c.929-.128 1.615-2.081 2.137-4.417.305-1.366.56-2.873.776-4.188.1-1.312.392-2.602.864-3.83.636-2.948 2.76-3.83 5.177-3.83.549.006 1.097.048 1.64.128A30.12 30.12 0 0132 9.932c.95.412 1.979.612 3.014.587 1.99-.1 3.965-.417 5.888-.945a25.35 25.35 0 014.591-.791h.789a15.415 15.415 0 019.335-3.153l-.025-.064zm-2.632 15.077l8.521-8.554a11.169 11.169 0 00-4.477-.957 11.414 11.414 0 00-5.685 1.532c.484.37.903 4.557 1.641 7.979zm13.112 5.004c.603-1.421.915-2.95.916-4.494a11.347 11.347 0 00-.954-4.506l-5.736 5.693.687.256c2.836 1.11 4.439 2.106 5.087 3.012v.039zm-11.573 6.791h.445l.725-.127v.28c1.659-.019 3.294-.4 4.792-1.116a11.453 11.453 0 003.882-3.032c-.997.427-2.032.76-3.09.995a67.266 67.266 0 01-9.4 1.43l-.762.766c1.07.468 2.208.76 3.37.868l.038-.064zm-8.788 10.06a6.34 6.34 0 002.963-.766c.508-.25.989-.549 1.437-.894a.305.305 0 00.14-.255.527.527 0 00-.178-.396A9.418 9.418 0 0047.985 39a5.998 5.998 0 00-2.238-.46h-.369a7.882 7.882 0 00-4.019 1.66.486.486 0 00-.127.32.407.407 0 00.14.305 7.513 7.513 0 004.12 1.66h.23l-.013.013zm-19.548-.013c.2.013.399.013.598 0a6.811 6.811 0 002.378-.74c.492-.258.964-.552 1.412-.881a.356.356 0 00.152-.306.384.384 0 00-.152-.32 7.512 7.512 0 00-4.375-1.672 1.267 1.267 0 00-.37 0 5.729 5.729 0 00-1.678.357A8.806 8.806 0 0021.8 40.2a.345.345 0 00-.127.268.422.422 0 00.178.383 7.348 7.348 0 004.311 1.634zM55.591.077A20.787 20.787 0 0044.45 3.294a35.806 35.806 0 00-4.846.88h-.28c-1.441.405-2.92.661-4.413.766a2.09 2.09 0 01-.712-.076l-.356-.166-.37-.115a35.915 35.915 0 00-5.188-1.2 20.184 20.184 0 00-2.391-.166c-5.202 0-9.017 2.72-10.378 7.328a23.053 23.053 0 00-1.12 4.864v.102l-.546.23C8.089 17.45-.928 20.322.089 27.382c.649 4.557 5.087 6.549 10.403 7.66l-.483 3.83-.242 1.927-.101.906a9.846 9.846 0 001.577 6.856 11.619 11.619 0 007.542 4.685l.47.076h1.068c2.34.205 5.228.383 8.827.55h.254a8.352 8.352 0 005.965-2.426l.114-.115.853-.855.674.727v.064h.063a8.355 8.355 0 005.94 2.553H44.36c2.01-.102 4.998-.268 7.783-.51h.661a11.993 11.993 0 005.876-2.337 9.925 9.925 0 002.894-3.642 9.963 9.963 0 00.922-4.566c3.3-.908 6.33-2.61 8.826-4.96a21.123 21.123 0 005.499-8.523 21.19 21.19 0 00-3.006-19.479A23.1 23.1 0 0065.862 2.7 23.003 23.003 0 0055.578-.064l.013.14z" fill="#fff"/><path d="M16.94 25.021c.929-.127 1.616-2.08 2.137-4.417.305-1.366.56-2.872.776-4.187.1-1.312.392-2.602.865-3.83.776-3.613 3.815-4.11 6.817-3.702a4.612 4.612 0 00-1.54 2.72c-.724.586-1.462 12.089-3.738 12.433-1.323 1.009-4.757.996-5.317.983z" fill="#CCC"/></g><defs><clipPath id="clip0"><path fill="#fff" d="M0 0h78v54H0z"/></clipPath></defs></svg>