<svg width="82" height="58" viewBox="0 0 82 58" fill="none" xmlns="http://www.w3.org/2000/svg"><g clip-path="url(#clip0)"><path d="M29.364 0v6.525c0 .93-.37 1.821-1.031 2.479a3.532 3.532 0 01-2.492 1.027H18.72L29.365 0z" fill="#CCC"/><path d="M56.71 17.529c.087.828.128 1.661.126 2.495h5.015v6.999h-5.88a27.304 27.304 0 01-.74 2.495h6.62v7.148H51.607a26.545 26.545 0 01-1.93 2.495H61.85v11.39c0 .93-.371 1.822-1.032 2.48a3.532 3.532 0 01-2.491 1.027H22.243c-.935 0-1.83-.37-2.491-1.027a3.497 3.497 0 01-1.032-2.48v-11.34h12.325a28.807 28.807 0 01-1.931-2.495H18.72v-7.148h6.758a27.22 27.22 0 01-.728-2.495h-6.03V13.349h7.21a6.838 6.838 0 004.81-1.988 6.77 6.77 0 001.997-4.786V.137H58.34a3.539 3.539 0 012.492 1.027 3.505 3.505 0 011.032 2.479v13.985l-5.154-.1z" fill="#CCC"/><path d="M61.851 19.999H51.42v-2.495h10.307c.086.828.128 1.661.125 2.495z" fill="#fff"/><path d="M73.311 11.079v8.945h-11.46c.003-.834-.04-1.667-.125-2.495h9.077v-6.45c.824.199 1.684.199 2.508 0z" fill="#686675"/><path d="M73.311 5.801v5.277c-.824.2-1.684.2-2.508 0V5.801h2.508z" fill="#686675"/><path d="M31.045 39.161H18.72v-2.495h10.394c.597.867 1.242 1.7 1.93 2.495z" fill="#fff"/><path d="M18.72 36.666H5.454v2.495H18.72v-2.495z" fill="#686675"/><path d="M61.864 36.666v2.495H49.689a26.545 26.545 0 001.93-2.495h10.245z" fill="#fff"/><path d="M51.62 36.666a26.545 26.545 0 01-1.931 2.495H31.045a28.826 28.826 0 01-1.931-2.495H51.62zM69.4 36.666v15.895H66.89v-13.4h-5.027v-2.495h7.535z" fill="#686675"/><path d="M25.478 29.518H18.72v-2.495h6.03c.201.848.44 1.684.728 2.495z" fill="#fff"/><path d="M11.435 27.023h7.285v2.495H8.927V13.61h2.508v13.412z" fill="#686675"/><path d="M61.864 27.023v2.495H55.28c.288-.811.527-1.647.74-2.495h5.843z" fill="#fff"/><path d="M55.983 27.023a27.304 27.304 0 01-.74 2.495H25.478a27.22 27.22 0 01-.728-2.495h31.233zM76.546 27.023H61.864v2.495h14.682v-2.495z" fill="#686675"/><path d="M55.582 20.123a27.99 27.99 0 01-4.093 14.595 28.18 28.18 0 01-11.116 10.357A28.167 28.167 0 0129.25 34.721a27.977 27.977 0 01-4.097-14.597c0-.926.05-1.85.15-2.77 1.26.382 2.57.576 3.887.574a13.015 13.015 0 006.436-1.685 12.935 12.935 0 004.748-4.64 12.86 12.86 0 004.737 4.647 12.939 12.939 0 006.435 1.678 13.313 13.313 0 003.886-.574c.1.92.15 1.844.151 2.77z" fill="#FEC633"/><path d="M40.373 45.562l-.226-.113A28.555 28.555 0 0128.84 34.935a28.362 28.362 0 01-4.151-14.837c0-.941.05-1.883.15-2.819l.063-.561.539.174c1.22.366 2.487.55 3.761.55a12.587 12.587 0 006.196-1.635 12.508 12.508 0 004.575-4.466l.414-.687.4.687a12.51 12.51 0 004.575 4.466 12.587 12.587 0 006.196 1.634 13.036 13.036 0 003.762-.549l.539-.174.063.561c.1.936.15 1.878.15 2.82a28.363 28.363 0 01-4.151 14.836 28.555 28.555 0 01-11.309 10.514l-.238.113zM25.716 17.94c0 .711-.088 1.447-.088 2.159a27.456 27.456 0 003.957 14.25 27.64 27.64 0 0010.788 10.165 27.653 27.653 0 0010.78-10.169A27.468 27.468 0 0055.106 20.1c0-.712 0-1.448-.088-2.159-1.135.29-2.302.436-3.473.437A13.558 13.558 0 0145.21 16.8a13.48 13.48 0 01-4.85-4.35 13.493 13.493 0 01-4.846 4.346 13.57 13.57 0 01-6.326 1.58c-1.17.008-2.337-.13-3.473-.41v-.026z" fill="#686675"/><path d="M40.147 45.474A28.556 28.556 0 0128.84 34.96a28.362 28.362 0 01-4.151-14.837c0-.941.05-1.883.15-2.82l.063-.56.539.174c1.22.366 2.487.55 3.761.55a12.586 12.586 0 006.196-1.635 12.507 12.507 0 004.575-4.466l.414-.687.4.687a12.508 12.508 0 004.575 4.466 12.586 12.586 0 006.196 1.634 13.035 13.035 0 003.762-.549l.275.886c-2.774.851-5.75.793-8.488-.166a13.532 13.532 0 01-6.72-5.161 13.493 13.493 0 01-4.846 4.345 13.57 13.57 0 01-6.326 1.58c-1.171 0-2.338-.147-3.473-.436 0 .711-.088 1.447-.088 2.159a27.468 27.468 0 004.02 14.352A27.655 27.655 0 0040.611 44.65l-.464.823z" fill="#686675"/><path d="M39.408 33.26l-3.323-3.306a1.866 1.866 0 01.046-2.599 1.885 1.885 0 012.612-.046l.665.662 4.263-4.23a1.87 1.87 0 012.049-.408 1.87 1.87 0 011.154 1.73c0 .496-.196.97-.545 1.323l-6.921 6.875z" fill="#686675"/><path d="M5.454 42.28c2.32 0 4.2-1.87 4.2-4.179 0-2.308-1.88-4.18-4.2-4.18-2.32 0-4.2 1.872-4.2 4.18s1.88 4.18 4.2 4.18z" fill="#CB16DE"/><path d="M5.454 43.516a5.474 5.474 0 01-3.03-.915 5.433 5.433 0 01-2.009-2.436 5.402 5.402 0 011.182-5.914 5.48 5.48 0 015.944-1.176 5.449 5.449 0 012.448 1.999 5.407 5.407 0 01-.678 6.852 5.468 5.468 0 01-3.857 1.59zm0-8.36c-.583 0-1.152.173-1.637.495-.484.322-.862.78-1.085 1.316a2.918 2.918 0 00.639 3.195 2.95 2.95 0 003.21.635 2.944 2.944 0 001.323-1.08 2.922 2.922 0 00.497-1.628 2.937 2.937 0 00-.867-2.07c-.552-.549-1.3-.859-2.08-.862z" fill="#686675"/><path d="M10.181 17.803c2.32 0 4.2-1.871 4.2-4.18 0-2.308-1.88-4.179-4.2-4.179-2.32 0-4.2 1.871-4.2 4.18 0 2.308 1.88 4.179 4.2 4.179z" fill="#FF456D"/><path d="M10.143 19.038a5.474 5.474 0 01-3.03-.915 5.433 5.433 0 01-2.009-2.435 5.402 5.402 0 011.183-5.914 5.48 5.48 0 015.944-1.176 5.449 5.449 0 012.447 1.998A5.408 5.408 0 0114 17.448a5.468 5.468 0 01-3.857 1.59zm0-8.359c-.582 0-1.152.172-1.637.494-.484.322-.862.78-1.085 1.316a2.919 2.919 0 00.639 3.195 2.952 2.952 0 003.211.636 2.942 2.942 0 001.322-1.08 2.92 2.92 0 00.497-1.629 2.918 2.918 0 00-.845-2.105 2.948 2.948 0 00-2.102-.877v.05z" fill="#686675"/><path d="M72.057 9.993c2.32 0 4.2-1.871 4.2-4.18 0-2.307-1.88-4.179-4.2-4.179-2.32 0-4.2 1.872-4.2 4.18s1.88 4.18 4.2 4.18z" fill="#FFED00"/><path d="M72.057.387a5.457 5.457 0 00-3.64 1.357 5.394 5.394 0 00-.842 7.179 5.443 5.443 0 003.228 2.155c.824.2 1.684.2 2.508 0a5.442 5.442 0 003.23-2.155 5.394 5.394 0 00-.843-7.179 5.457 5.457 0 00-3.64-1.357zm1.254 8.072a2.96 2.96 0 01-3.464-.714 2.924 2.924 0 011.166-4.681 2.96 2.96 0 013.398.978c.384.507.592 1.125.593 1.76-.001.556-.16 1.101-.46 1.572-.3.47-.727.846-1.233 1.085z" fill="#686675"/><path d="M76.546 32.387c2.32 0 4.2-1.871 4.2-4.18 0-2.307-1.88-4.179-4.2-4.179-2.32 0-4.2 1.872-4.2 4.18s1.88 4.18 4.2 4.18z" fill="#0093DD"/><path d="M76.596 33.622a5.473 5.473 0 01-3.031-.915 5.433 5.433 0 01-2.01-2.438 5.402 5.402 0 011.189-5.915 5.48 5.48 0 015.948-1.169 5.449 5.449 0 012.445 2.004 5.408 5.408 0 01-.689 6.848 5.468 5.468 0 01-3.852 1.585zm0-8.346c-.583 0-1.152.172-1.637.494-.484.322-.862.78-1.085 1.316a2.918 2.918 0 00.639 3.195 2.95 2.95 0 003.21.635 2.943 2.943 0 001.323-1.08 2.921 2.921 0 00-.367-3.701 2.954 2.954 0 00-2.083-.859z" fill="#686675"/><path d="M68.145 56.752c2.32 0 4.2-1.87 4.2-4.179 0-2.308-1.88-4.18-4.2-4.18-2.32 0-4.2 1.872-4.2 4.18s1.88 4.18 4.2 4.18z" fill="#0ADFA5"/><path d="M68.145 58.037a5.474 5.474 0 01-3.03-.914 5.433 5.433 0 01-2.009-2.436 5.403 5.403 0 011.183-5.914 5.48 5.48 0 015.944-1.176 5.448 5.448 0 012.447 1.998 5.408 5.408 0 01-.678 6.853 5.468 5.468 0 01-3.857 1.59zm0-8.346c-.583 0-1.153.172-1.638.495a2.935 2.935 0 00-1.085 1.318 2.918 2.918 0 00.644 3.197 2.951 2.951 0 003.215.627 2.944 2.944 0 001.32-1.085 2.922 2.922 0 00.49-1.633 2.907 2.907 0 00-.845-2.1 2.936 2.936 0 00-2.1-.869v.05z" fill="#686675"/><path d="M56.71 17.529v-.437l-.175-1.472-1.442.436c-1.142.35-2.33.526-3.523.524-2.037.005-4.04-.52-5.81-1.522a11.67 11.67 0 01-4.283-4.192l-1.079-1.834-1.078 1.822a11.784 11.784 0 01-5.904 4.946 11.854 11.854 0 01-7.713.256l-1.454-.436-.163 1.497c-.11.965-.165 1.935-.163 2.907a28.972 28.972 0 00.853 7.023c.2.849.45 1.685.727 2.496a29.768 29.768 0 005.567 9.644 29.717 29.717 0 008.776 6.874l.59.312.577-.312a29.392 29.392 0 008.776-6.874 26.533 26.533 0 001.931-2.496 28.24 28.24 0 003.624-7.148c.288-.811.526-1.647.74-2.495.563-2.291.849-4.641.852-7a23.454 23.454 0 00-.226-2.52zm-4.125 11.989a26.272 26.272 0 01-6.269 9.643 26.314 26.314 0 01-4.74 3.68 21.06 21.06 0 01-1.14.675l-.803-.462-.765-.462c-.25-.162-.489-.324-.74-.511-.25-.187-.5-.337-.739-.524a21.157 21.157 0 01-2.094-1.71l-.564-.51-.163-.163-.238-.237a10.874 10.874 0 01-.527-.549 21.115 21.115 0 01-1.492-1.71 26.616 26.616 0 01-2.094-3.03l-.414-.737a23.652 23.652 0 01-1.554-3.38c-.284-.724-.531-1.46-.74-2.209a2.498 2.498 0 00-.088-.287v-.262c0-.15-.088-.312-.113-.474a19.89 19.89 0 01-.363-1.76c-.1-.598-.15-.897-.2-1.359v-.374c0-.225-.001-.45-.064-.674 0-.699-.087-1.41-.087-2.12v-1.248c2.568.497 5.224.284 7.678-.619a14.277 14.277 0 006.239-4.496 14.318 14.318 0 004.972 3.947 14.39 14.39 0 006.2 1.417h1.09c.301 0 .602 0 .903-.1.228-.025.454-.062.677-.112.013.17.013.341 0 .512a6.62 6.62 0 010 .698 27.068 27.068 0 01-.928 7c-.234.85-.514 1.687-.84 2.507z" fill="#fff"/><path d="M55.795 18.427l-.263.075c-.151.05-.306.088-.464.112l-.451.112h-.326a6.4 6.4 0 01-.677.113c-.301 0-.602.074-.903.1h-1.166a14.391 14.391 0 01-6.2-1.418 14.32 14.32 0 01-4.972-3.947 14.278 14.278 0 01-6.239 4.497 14.348 14.348 0 01-7.678.618v1.247c0 .712 0 1.423.087 2.121 0 .225 0 .45.063.674v.374c0 .462.113.91.2 1.36.088.45.214 1.248.364 1.76 0 .161.076.323.113.473v.137a.666.666 0 000 .125c.014.098.039.195.075.287.21.748.456 1.485.74 2.208a23.65 23.65 0 001.555 3.381l.414.736a26.624 26.624 0 002.094 3.032c.466.596.964 1.166 1.492 1.71.163.186.35.373.526.548l.238.237.163.162.565.512c.66.613 1.36 1.184 2.093 1.709.239.187.49.362.74.524.251.162.49.35.74.511l.765.462.802.462.577.312-.188.361-.175.337-.214.4-.188.361-.363.686a29.718 29.718 0 01-8.777-6.874 29.77 29.77 0 01-5.567-9.643 27.245 27.245 0 01-.727-2.496 28.967 28.967 0 01-.853-7.024c-.002-.97.053-1.941.163-2.906l.163-1.497 1.454.436c2.528.777 5.244.687 7.713-.257a11.783 11.783 0 005.904-4.945l1.078-1.822 1.079 1.834a11.67 11.67 0 004.283 4.191 11.744 11.744 0 005.81 1.523 11.995 11.995 0 003.523-.524l.226.749.138.449.087.3v.149l.364.886z" fill="#fff"/><path opacity=".4" d="M40.373 11.877a12.872 12.872 0 01-4.743 4.649 12.952 12.952 0 01-6.441 1.676c-1.316 0-2.625-.189-3.887-.561-.1.915-.15 1.836-.15 2.757a27.977 27.977 0 004.097 14.598 28.166 28.166 0 0011.124 10.353" fill="#fff"/></g><defs><clipPath id="clip0"><path fill="#fff" d="M0 0h82v58H0z"/></clipPath></defs></svg>