<svg xmlns="http://www.w3.org/2000/svg" width="20.544" height="24" viewBox="13.656 11.667 20.544 24"><path fill="#D8D8D8" fill-opacity="0" d="M0 0h48v48H0z"/><path fill="#2B2B2B" d="M25.846 21.267c-.59 0-1.082.8-1.082 1.8s.492 1.8 1.082 1.8c.591 0 1.082-.8 1.082-1.8s-.491-1.8-1.082-1.8zm-3.836 0c-.59 0-1.082.8-1.082 1.8s.492 1.8 1.082 1.8c.59 0 1.082-.8 1.082-1.8s-.492-1.8-1.082-1.8z"/><g transform="translate(14.4 12)"><linearGradient id="a" gradientUnits="userSpaceOnUse" x1="-428.095" y1="-16.102" x2="-427.095" y2="-16.102" gradientTransform="matrix(6 0 0 -3.6 2575.102 -46.898)"><stop offset="0" stop-color="#17e8d8"/><stop offset="1" stop-color="#009ee2"/></linearGradient><path fill="url(#a)" d="M11.446 9.267c-.59 0-1.082.8-1.082 1.8s.492 1.8 1.082 1.8c.591 0 1.082-.8 1.082-1.8s-.491-1.8-1.082-1.8zm-3.836 0c-.59 0-1.082.8-1.082 1.8s.492 1.8 1.082 1.8c.59 0 1.082-.8 1.082-1.8s-.492-1.8-1.082-1.8z"/></g><g><path fill="#2B2B2B" d="M31.724 11.667H16.132c-1.348 0-2.404 1.087-2.404 2.475V30.38c0 1.35 1.057 2.475 2.404 2.475h13.223l-.619-2.213 1.494 1.426 1.42 1.35 2.478 2.25V14.142c0-1.388-1.056-2.475-2.404-2.475zm-4.481 15.675s-.437-.524-.765-.975c1.529-.45 2.112-1.425 2.112-1.425a5.835 5.835 0 01-1.348.712 7.745 7.745 0 01-1.676.525c-1.13.225-2.149.149-3.023 0a11.966 11.966 0 01-1.712-.525c-.255-.112-.546-.225-.838-.412-.036-.038-.073-.038-.109-.075-.037 0-.037-.037-.037-.037-.219-.113-.328-.188-.328-.188s.546.975 2.04 1.425c-.364.45-.765 1.013-.765 1.013-2.586-.075-3.57-1.838-3.57-1.838 0-3.862 1.676-7.013 1.676-7.013 1.677-1.312 3.28-1.275 3.28-1.275l.109.15c-2.113.638-3.097 1.575-3.097 1.575s.255-.15.692-.337c1.239-.562 2.223-.712 2.66-.75.073 0 .146-.038.182-.038.729-.112 1.53-.112 2.368-.038 1.093.15 2.295.45 3.497 1.163 0 0-.911-.9-2.914-1.538l.146-.188s1.604-.038 3.279 1.275c0 0 1.676 3.15 1.676 7.013.035-.036-.948 1.726-3.535 1.801z"/><g transform="translate(14.4 12)"><linearGradient id="b" gradientUnits="userSpaceOnUse" x1="-471.723" y1="50.285" x2="-470.723" y2="50.285" gradientTransform="matrix(20.4 0 0 -24 9622.466 1218.5)"><stop offset="0" stop-color="#17e8d8"/><stop offset="1" stop-color="#009ee2"/></linearGradient><path fill="url(#b)" d="M17.324-.333H1.732C.384-.333-.672.754-.672 2.142V18.38c0 1.35 1.057 2.475 2.404 2.475h13.223l-.619-2.213 1.494 1.426 1.42 1.35 2.478 2.25V2.142c0-1.388-1.056-2.475-2.404-2.475zm-4.481 15.675s-.437-.524-.765-.975c1.529-.45 2.112-1.425 2.112-1.425a5.835 5.835 0 01-1.348.712 7.745 7.745 0 01-1.676.525c-1.13.225-2.149.149-3.023 0a11.966 11.966 0 01-1.712-.525c-.255-.112-.546-.225-.838-.412-.036-.038-.073-.038-.109-.075-.037 0-.037-.037-.037-.037-.219-.113-.328-.188-.328-.188s.546.975 2.04 1.425c-.364.45-.765 1.013-.765 1.013-2.586-.075-3.57-1.838-3.57-1.838C2.824 9.68 4.5 6.529 4.5 6.529c1.677-1.312 3.28-1.275 3.28-1.275l.109.15c-2.113.638-3.097 1.575-3.097 1.575s.255-.15.692-.337c1.239-.562 2.223-.712 2.66-.75.073 0 .146-.038.182-.038.729-.112 1.53-.112 2.368-.038 1.093.15 2.295.45 3.497 1.163 0 0-.911-.9-2.914-1.538l.146-.188s1.604-.038 3.279 1.275c0 0 1.676 3.15 1.676 7.013.035-.036-.948 1.726-3.535 1.801z"/></g></g></svg>