<svg version="1.1" id="Layer_1" xmlns="http://www.w3.org/2000/svg" x="0" y="0" viewBox="0 0 45.4 69.9" xml:space="preserve"><style>.st3{fill:#fff}</style><g id="页面-1"><g id="myMessage-Staking-Dapp" transform="translate(-456 -1289)"><g id="功能区" transform="translate(0 900)"><g id="Lavender" transform="translate(310 382)"><g id="Lavender-icon" transform="translate(146 7)"><g id="薰衣草-icon"><path id="矩形" fill="#d8d8d8" fill-opacity="0" d="M-13.4-2.1h80v80h-80z"/><g id="薰衣草" transform="translate(14 3)"><g id="蒙版"><g transform="rotate(90 27 44)"><path id="path-2_1_" d="M33.5 45L48 69.4c2.8 4.8 1.2 10.9-3.5 13.7-1.5.9-3.3 1.4-5.1 1.4h-29c-5.5 0-10-4.5-10-10 0-1.8.5-3.6 1.4-5.1L16.3 45c2.8-4.8 8.9-6.3 13.7-3.5 1.4.8 2.6 2 3.5 3.5z" fill="#d8d8d8"/></g><g transform="rotate(90 27 44)"><linearGradient id="path-2_3_" gradientUnits="userSpaceOnUse" x1="299.933" y1="207.092" x2="300.933" y2="207.092" gradientTransform="matrix(0 -44.3861 -48.9018 0 10127.6 13375.129)"><stop offset="0" stop-color="#17e8d8"/><stop offset="1" stop-color="#009ee2"/></linearGradient><path id="path-2_2_" d="M33.5 45L48 69.4c2.8 4.8 1.2 10.9-3.5 13.7-1.5.9-3.3 1.4-5.1 1.4h-29c-5.5 0-10-4.5-10-10 0-1.8.5-3.6 1.4-5.1L16.3 45c2.8-4.8 8.9-6.3 13.7-3.5 1.4.8 2.6 2 3.5 3.5z" fill="url(#path-2_3_)"/></g></g><g id="路径"><path class="st3" d="M29.9.4c-.1-.4-.8-.3-.7.1 3.5 12.2 1.9 32.7-8.1 53.6 1 .6 1.2.7 1.4.8C29.4 40.1 35 20.6 29.9.4z" transform="matrix(-1 0 0 1 41 0)"/><path class="st3" d="M20.3 28.8c.2-.6-.6-1-1-.5-2.8 3.1-7.3 9.3-5.4 15.7 1.8 5.7 4.4 5.4 4.8 8.7.8.5 2.2 1.3 2.4 1.4.8-2.3 1-3.2.2-5.2 0 0-4-10.6-1-20.1zM23.6 50.6c.3-1.8 1.9-3.4 3.2-4.7 3.9-4 13.6-12.3 22.7-8.8 1.6.6 3.2 2.1 3.9 3.1.2.3-.1.7-.5.5-1.5-.8-6.4-1.1-11.6.5 0 0-15.3 4.8-16.7 8.8-.7 1.8-1.1 1.2-1 .6zM28.4 28c.8 1.1 1 2 .9 2.6-.1.3-.2.5-.5.6-.6.3-1.4.3-2.8-.2-1-.3-4.8-2-2.7-4.5 1.8-2.3 4.4.6 5.1 1.5zM34.1 27.3c-1.4.1-2.4-.2-2.9-.6-.2-.2-.3-.4-.3-.7.1-.6.5-1.3 1.7-2.2.8-.6 4.4-2.9 5.6.1 1.2 2.7-3 3.3-4.1 3.4zM34.9 14.1c-1.4.1-2.4-.2-2.9-.6-.2-.2-.3-.4-.3-.7.1-.6.5-1.3 1.7-2.2.8-.6 4.4-2.9 5.6.1 1.2 2.7-2.9 3.4-4.1 3.4zM26.5 39.6c.4.9.4 1.7.2 2.1-.1.2-.3.3-.5.4-.5.1-1.2-.1-2.2-.6-.7-.4-3.4-2.3-1.2-3.9 1.8-1.5 3.3 1.2 3.7 2zM31.1 37c-1.1.2-1.9.1-2.4-.2-.2-.1-.3-.4-.3-.6 0-.6.3-1.3 1.1-2.2.6-.7 3.1-3.2 4.5-.6 1.2 2.4-2 3.4-2.9 3.6zM30.7 16.4c.9 1.1 1.2 2 1 2.6-.1.3-.2.5-.5.6-.7.3-1.6.3-3.2-.1-1.1-.3-5.4-1.9-3.2-4.5 2.2-2.4 5.2.6 5.9 1.4zM29.6 7.9c1 1 1.3 2 1.3 2.6 0 .3-.2.6-.4.7-.6.4-1.5.5-3.1.2-1.1-.2-5.4-1.4-3.6-4.4 1.7-2.7 5 .1 5.8.9zM33.8 4.1c-1.1.9-2 1.2-2.7 1.1-.3 0-.5-.2-.7-.5-.3-.6-.4-1.6 0-3.1.3-1.1 1.7-5.3 4.5-3.3 2.6 2-.3 5.1-1.1 5.8z" transform="matrix(-1 0 0 1 41 0)"/></g></g></g></g></g></g></g></g></svg>