<?xml version="1.0" encoding="UTF-8"?>
<svg width="80px" height="80px" viewBox="0 0 80 80" version="1.1" xmlns="http://www.w3.org/2000/svg" xmlns:xlink="http://www.w3.org/1999/xlink">
    <!-- Generator: Sketch 58 (84663) - https://sketch.com -->
    <title>切片</title>
    <desc>Created with Sketch.</desc>
    <defs>
        <linearGradient x1="0%" y1="50.0001528%" x2="100.000535%" y2="50.0001528%" id="linearGradient-1">
            <stop stop-color="#17E8D8" offset="0%"></stop>
            <stop stop-color="#009EE2" offset="100%"></stop>
        </linearGradient>
        <path d="M35.7859436,34.6977191 L50.2360511,59.0822756 C53.051612,63.8335345 51.4824187,69.9676539 46.7311597,72.7832148 C45.18789,73.697745 43.4270274,74.1802995 41.6331358,74.1802995 L12.7329207,74.1802995 C7.21007324,74.1802995 2.73292074,69.703147 2.73292074,64.1802995 C2.73292074,62.3864079 3.21547519,60.6255453 4.13000541,59.0822756 L18.5801129,34.6977191 C21.3956738,29.9464602 27.5297932,28.3772668 32.2810522,31.1928277 C33.7249676,32.0484813 34.93029,33.2538037 35.7859436,34.6977191 Z" id="path-2"></path>
    </defs>
    <g id="页面-1" stroke="none" stroke-width="1" fill="none" fill-rule="evenodd">
        <g id="myMessage-Staking-Dapp" transform="translate(-1110.000000, -1287.000000)">
            <g id="功能区" transform="translate(0.000000, 900.000000)">
                <g id="Lemongrass" transform="translate(1000.000000, 382.000000)">
                    <g id="Lemongrass-icon" transform="translate(110.000000, 5.000000)">
                        <g>
                            <rect id="矩形" fill="#D8D8D8" opacity="0" x="0" y="0" width="80" height="80"></rect>
                            <g id="柠檬草" transform="translate(39.500000, 40.000000) scale(-1, 1) rotate(-360.000000) translate(-39.500000, -40.000000) translate(12.000000, 0.000000)">
                                <mask id="mask-3" fill="white">
                                    <use xlink:href="#path-2"></use>
                                </mask>
                                <g id="蒙版" transform="translate(27.183028, 47.180299) scale(1, -1) rotate(-90.000000) translate(-27.183028, -47.180299) ">
                                    <use fill="#D8D8D8" xlink:href="#path-2"></use>
                                    <use fill="url(#linearGradient-1)" xlink:href="#path-2"></use>
                                </g>
                                <path d="M51.9970645,48.4164329 C50.917918,48.2109739 50.0003387,47.5261109 49.4607655,46.5911239 C47.668285,43.4794634 42.5072824,35.9876569 38.5656543,44.7955915 C35.3959928,51.8770637 32.8050978,57.2970934 30.2120972,65.0143086 C29.7004547,64.7130849 29.6376495,64.688503 29.1899482,64.400848 C30.7265911,58.5205597 32.9328194,51.3512223 36.0493265,43.5516502 C37.6303297,39.8314163 42.3944902,28.8531702 49.2839562,42.3658165 C49.2839562,42.3658165 51.183132,47.9012967 53,48.3449689 C53,48.3479465 52.8536751,48.5802045 51.9970645,48.4164329 Z" id="路径" fill="#FFFFFF" fill-rule="nonzero"></path>
                                <path d="M16.0067406,25.8129384 C16.0067406,25.8129384 17.2393692,35.8129384 23.2125703,45.5250568 C27.6622522,52.7600112 29.0110741,59.421452 28.9851227,64.293514 C28.5725428,64.0522719 27.3757935,63.3580281 26.4001955,62.7616839 C25.5783645,58.3234966 24.0452487,53.7092783 21.5997131,49.0536415 C14.8236277,36.1538112 16.0067406,25.8129384 16.0067406,25.8129384 Z" id="路径" fill="#FFFFFF" fill-rule="nonzero"></path>
                                <path d="M16.2434287,1.42108547e-14 C16.5684909,0.548963863 29.2030894,20.3553057 27.0354794,49.8669588 C26.6735013,54.7947924 26.3285349,58.9959417 26.019989,62.5297353 C27.4397364,63.3951754 28.982673,64.2750166 30.5518413,65.2196168 C31.1352608,56.8682939 31.2644543,47.489326 30.1699185,39.2505025 C28.3131638,25.2742812 24.8724824,10.0158232 16.2434287,1.42108547e-14 Z" id="路径" fill="#FFFFFF" fill-rule="nonzero"></path>
                                <path d="M30.0000056,3.8129384 C30.0000056,3.8129384 30.4979158,13.4842061 30.9937239,20.6564183 C31.3242627,25.4378931 31.0877727,38.4131704 30.2842542,59.5822502 C32.1733269,62.9728914 37.7587698,28.2516175 30.0000056,3.8129384 Z" id="路径" fill="#FFFFFF" fill-rule="nonzero"></path>
                            </g>
                        </g>
                    </g>
                </g>
            </g>
        </g>
    </g>
</svg>