<svg width="228" height="53" viewBox="0 0 228 53" xmlns="http://www.w3.org/2000/svg"><defs><linearGradient x1=".004%" y1="50%" x2="99.996%" y2="50%" id="a"><stop stop-color="#18E8D9" offset="0%"/><stop stop-color="#009EE2" offset="100%"/></linearGradient></defs><g fill-rule="nonzero" fill="none"><path d="M89 26.678V38h-3.943V26.678c0-1.897-1.083-3.074-2.801-3.074-1.718 0-2.801 1.177-2.801 3.074V38H75.51V26.678c0-1.897-1.049-3.074-2.767-3.074s-2.796 1.177-2.796 3.074V38H66V26.678c0-4.036 2.42-6.676 6.744-6.676 1.88-.052 3.66.822 4.74 2.326 1.093-1.504 2.883-2.377 4.772-2.326C86.584 19.99 89 22.63 89 26.678zM107 20.016V37.61c0 5.062-2.919 7.39-7.74 7.39-2.633 0-5.391-.862-7.26-2.775l2.253-2.624a6.698 6.698 0 004.817 2.004c2.758 0 4.315-.863 4.315-4.012v-2.299c-1.143 1.45-2.885 2.192-5.062 2.192-4.058 0-6.28-2.533-6.28-7.222V20h3.935v10.326c0 2.25 1.362 3.58 3.552 3.58 2.189 0 3.551-1.392 3.551-3.888V20.016H107zM131 16v22h-3.719V22.113l-4.413 8.361h-3.72l-4.429-8.328V38H111V16h4.058l5.934 11.18L126.93 16zM141.415 34.455a4.378 4.378 0 004.129-2.353l3.23 1.612c-1.63 3-4.222 4.286-7.453 4.286-5.201 0-8.321-3.069-8.321-9.498 0-6.635 3.265-9.502 8.258-9.502 4.992 0 7.742 2.897 7.742 9.28v1.508h-12.097c.29 3.283 1.698 4.667 4.512 4.667zm-4.478-7.894h8.253c-.319-2.705-1.532-4.03-4.094-4.03-2.495 0-3.776 1.29-4.159 4.03zM156.568 19c3.516 0 6.078 1.42 7.432 4.128l-3.432 1.613c-.73-1.613-1.952-2.291-4-2.291-1.85 0-2.712.613-2.712 1.678 0 3.647 10.144 1.325 10.144 8.26 0 3.518-2.94 5.612-7.366 5.612-3.437 0-6.245-1.257-7.634-4.613l3.437-1.287c.694 1.84 2.197 2.42 4.294 2.42 2.017 0 3.239-.58 3.239-1.935 0-3.613-10.144-.966-10.144-8.153 0-3.432 2.58-5.432 6.742-5.432z" fill="#000"/><path d="M171.568 19c3.516 0 6.078 1.42 7.432 4.128l-3.437 1.613c-.725-1.613-1.947-2.291-3.995-2.291-1.85 0-2.712.613-2.712 1.678 0 3.647 10.144 1.325 10.144 8.26 0 3.518-2.94 5.612-7.366 5.612-3.437 0-6.245-1.257-7.634-4.613l3.437-1.287c.694 1.84 2.197 2.42 4.294 2.42 2.017 0 3.239-.58 3.239-1.935 0-3.613-10.144-.966-10.144-8.153 0-3.432 2.576-5.432 6.742-5.432zM195 26.532V31.5c0 4.213-2.65 6.5-7.816 6.5-4.632 0-7.184-2.38-7.184-5.537 0-3.156 2.123-5.408 6.768-5.408h4.275v-.844c0-2.48-1.146-3.477-3.256-3.477-1.945 0-3.253.856-3.987 2.672l-3.397-1.803c1.626-3.318 3.894-4.603 7.435-4.603 4.61 0 7.162 2.154 7.162 7.532zm-3.957 4.968v-1.234h-4.275c-1.822 0-2.811.643-2.811 2.09 0 1.195.926 2.03 3.545 2.03 2.042 0 3.541-.745 3.541-2.886zM212 23.351l-2.375-.122a7.09 7.09 0 01.554 2.904c0 3.655-1.94 5.799-5.742 6.197v1.433c5.086.155 6.722 2.474 6.722 5.588 0 3.574-2.19 5.649-8.108 5.649-5.984 0-8.051-2.075-8.051-5.62h3.732c0 1.803.989 2.473 4.257 2.473 3.08 0 4.102-.61 4.102-2.473 0-1.495-.644-2.473-3.142-2.473h-2.9v-4.65c-3.391-.548-5.09-2.624-5.09-6.092 0-3.967 2.314-6.164 7.125-6.164.881-.012 1.76.08 2.62.272h6.292l.004 3.078zm-5.459 2.843c0-1.953-1.14-3.054-3.453-3.054-2.375 0-3.482 1.1-3.482 3.054 0 2.03 1.107 3.054 3.482 3.054 2.313 0 3.453-1.011 3.453-3.054zM220.42 34.455a4.37 4.37 0 004.124-2.353l3.235 1.612c-1.635 3-4.227 4.286-7.458 4.286-5.197 0-8.321-3.069-8.321-9.498 0-6.635 3.265-9.502 8.258-9.502 4.992 0 7.742 2.897 7.742 9.28v1.508h-12.093c.286 3.283 1.694 4.667 4.512 4.667zm-4.483-7.894h8.258c-.32-2.705-1.537-4.03-4.095-4.03s-3.78 1.29-4.163 4.03z" fill="#000"/><path d="M55.998 14.76v31.966a6.123 6.123 0 01-1.157 3.582c-1.208 1.693-3.193 2.695-5.306 2.678-2.113-.017-4.082-1.05-5.262-2.76a6.076 6.076 0 01-1.046-2.724V36.23 16.458c.06-.682.06-1.368 0-2.05-.215-1.018-1.136-1.745-2.2-1.737-1.064.008-1.973.75-2.172 1.77a9.382 9.382 0 000 1.893v32.089a2.051 2.051 0 01-.642 1.503 2.188 2.188 0 01-1.582.631h-.055a2.152 2.152 0 01-1.544-.63 2.019 2.019 0 01-.642-1.503V14.839c-.061-2.365 1.197-4.577 3.286-5.778a6.813 6.813 0 016.77 0c2.088 1.2 3.346 3.413 3.285 5.778v32.094c.096.95.91 1.674 1.887 1.68.977.007 1.801-.707 1.91-1.655a1.832 1.832 0 000-.415V14.76a9.94 9.94 0 00-3.121-7.364 10.516 10.516 0 00-4.253-2.582l-.357-.104-.366-.092-.383-.078a11.824 11.824 0 00-2.126-.191h-.383a3.367 3.367 0 00-.357 0 10.317 10.317 0 00-6.77 3.018 9.927 9.927 0 00-3.126 7.364v33.663a2.116 2.116 0 01-.643 1.536 2.222 2.222 0 01-1.573.627h-.072a2.184 2.184 0 01-1.582-.627 2.051 2.051 0 01-.646-1.506V14.76a9.923 9.923 0 00-3.122-7.364 10.376 10.376 0 00-7.51-3.047 10.372 10.372 0 00-7.523 3.047 9.94 9.94 0 00-3.122 7.364v31.766a1.832 1.832 0 000 .415c.11.948.934 1.662 1.91 1.656.977-.006 1.792-.732 1.888-1.68v-.191-31.887c-.007-2.773 1.787-5.246 4.47-6.16a6.87 6.87 0 014.371 0c2.696.903 4.506 3.378 4.504 6.16v33.585a2.007 2.007 0 01-.646 1.502 2.152 2.152 0 01-1.544.631h-.072a2.188 2.188 0 01-1.582-.63 2.051 2.051 0 01-.643-1.503V32.873 18.434v-2.1a9.079 9.079 0 000-1.893c-.193-1.024-1.104-1.768-2.17-1.777-1.065-.008-1.987.723-2.197 1.743a11.38 11.38 0 000 2.051V47.52c-.331 2.577-2.258 4.687-4.843 5.302-2.585.616-5.291-.39-6.801-2.53a6.124 6.124 0 01-1.136-3.549V14.777C-.07 10.843 1.528 7.055 4.421 4.315c2.803-2.819 6.676-4.38 10.7-4.313 4.978 0 9.278 2.29 12.898 6.87C31.43 2.523 35.47.233 40.14.003h.732c4.024-.067 7.897 1.494 10.7 4.313 2.891 2.735 4.494 6.516 4.427 10.445z" fill="url(#a)"/></g></svg>